<svg xmlns="http://www.w3.org/2000/svg" xmlns:xlink="http://www.w3.org/1999/xlink" viewBox="0 0 883 716.13"><defs><style>.cls-1{font-size:845.83px;fill:none;font-family:Impact;}.cls-2{clip-path:url(#clip-path);}.cls-3{fill:#0f6;}.cls-4{fill:#fff;}.cls-4,.cls-5,.cls-6{stroke:#4d4d4d;stroke-miterlimit:10;stroke-width:0.25px;}.cls-5{fill:#ccc;}.cls-6{fill:#e6e6e6;}</style><clipPath id="clip-path" transform="translate(-35.22 -97.52)"><text class="cls-1" transform="translate(0 757.24) scale(1.02 1)">B</text></clipPath></defs><g id="Layer_2" data-name="Layer 2"><g id="Layer_1-2" data-name="Layer 1"><g class="cls-2"><polygon class="cls-3" points="883 35 18 35 0 0 865 0 883 35"/><polygon class="cls-3" points="883 79 18 79 0 44 865 44 883 79"/><polygon class="cls-3" points="883 123 18 123 0 88 865 88 883 123"/><polygon class="cls-3" points="883 164 18 164 0 129 865 129 883 164"/><polygon class="cls-3" points="883 205 18 205 0 170 865 170 883 205"/><polygon class="cls-3" points="883 246 18 246 0 211 865 211 883 246"/><polygon class="cls-3" points="883 287 18 287 0 252 865 252 883 287"/><polygon class="cls-3" points="883 328 18 328 0 293 865 293 883 328"/><polygon class="cls-3" points="883 369 18 369 0 334 865 334 883 369"/><polygon class="cls-3" points="883 410 18 410 0 375 865 375 883 410"/><polygon class="cls-3" points="883 451 18 451 0 416 865 416 883 451"/><polygon class="cls-3" points="883 492 18 492 0 457 865 457 883 492"/><polygon class="cls-3" points="883 533 18 533 0 498 865 498 883 533"/><polygon class="cls-3" points="883 574 18 574 0 539 865 539 883 574"/><polygon class="cls-3" points="883 615 18 615 0 580 865 580 883 615"/><polygon class="cls-3" points="883 656 18 656 0 621 865 621 883 656"/><polygon class="cls-3" points="883 697 18 697 0 662 865 662 883 697"/></g><rect class="cls-4" x="34.24" y="0.99" width="3" height="687.07"/><rect class="cls-4" x="38.95" y="1.36" width="3.57" height="347.35"/><ellipse class="cls-5" cx="36.24" cy="700" rx="8" ry="16"/><ellipse class="cls-6" cx="41.24" cy="363" rx="8" ry="16"/></g></g></svg>