<svg xmlns="http://www.w3.org/2000/svg" width="835" height="550" viewBox="0 0 835 550">
  <g id="Group_32" data-name="Group 32" transform="translate(-223 -125)">
    <g id="Path_375" data-name="Path 375" transform="translate(735.408 132.117)" fill="none">
      <path d="M319.119,23.883-3.1,139.1,2.462,393.28,319.9,507.5Z" stroke="none"/>
      <path d="M 309.1415100097656 38.07113647460938 L 7.0556640625 146.09033203125 L 12.30950927734375 386.1951904296875 L 309.8726196289063 493.2623291015625 L 309.1415100097656 38.07113647460938 M 319.1187438964844 23.88339233398438 L 319.8955078125 507.4963073730469 L 2.462158203125 393.2796020507813 L -3.099609375 139.1015319824219 L 319.1187438964844 23.88339233398438 Z" stroke="none" fill="#707070"/>
    </g>
    <g id="Path_374" data-name="Path 374" transform="translate(229.408 132.117)" fill="none">
      <path d="M-2.323,23.883l322.2,116.333-5.561,256.639L-3.1,512.178Z" stroke="none"/>
      <path d="M 7.654449462890625 38.11770629882813 L 6.923095703125 497.8968811035156 L 304.4681091308594 389.7943115234375 L 309.7255859375 147.182861328125 L 7.654449462890625 38.11770629882813 M -2.32293701171875 23.8834228515625 L 319.8788757324219 140.2169189453125 L 314.3174438476563 396.8554992675781 L -3.099639892578125 512.1778564453125 L -2.32293701171875 23.8834228515625 Z" stroke="none" fill="#707070"/>
    </g>
    <g id="Rectangle_51" data-name="Rectangle 51" transform="translate(223 125)" fill="none" stroke="#707070" stroke-width="10">
      <rect width="835" height="550" rx="50" stroke="none"/>
      <rect x="5" y="5" width="825" height="540" rx="45" fill="none"/>
    </g>
    <g id="Ellipse_62" data-name="Ellipse 62" transform="translate(479 239)" fill="#fff" stroke="#707070" stroke-width="10">
      <circle cx="161" cy="161" r="161" stroke="none"/>
      <circle cx="161" cy="161" r="156" fill="none"/>
    </g>
    <g id="Ellipse_63" data-name="Ellipse 63" transform="translate(510 270)" fill="#fff" stroke="#707070" stroke-width="10">
      <circle cx="130" cy="130" r="130" stroke="none"/>
      <circle cx="130" cy="130" r="125" fill="none"/>
    </g>
  </g>
</svg>
