<svg xmlns="http://www.w3.org/2000/svg" width="121" height="17" viewBox="0 0 121 17">
  <g id="Group_15" data-name="Group 15" transform="translate(0.253)">
    <g id="Polygon_6" data-name="Polygon 6" transform="translate(-0.253)" fill="#fff">
      <path d="M 12.88131999969482 15.75186920166016 L 8.793109893798828 12.79360961914063 L 8.5 12.58150959014893 L 8.206890106201172 12.79360961914063 L 4.118680477142334 15.75186920166016 L 5.542870044708252 10.70790958404541 L 5.632629871368408 10.38998031616211 L 5.375400066375732 10.18270969390869 L 1.371859192848206 6.956721305847168 L 6.388440132141113 6.821859836578369 L 6.737639904022217 6.812469959259033 L 6.848939895629883 6.481339931488037 L 8.5 1.569308280944824 L 10.15106010437012 6.481339931488037 L 10.26235961914063 6.812469959259033 L 10.61155986785889 6.821859836578369 L 15.62814044952393 6.956721305847168 L 11.62460041046143 10.18270969390869 L 11.36736965179443 10.38998031616211 L 11.45713043212891 10.70790958404541 L 12.88131999969482 15.75186920166016 Z" stroke="none"/>
      <path d="M 8.5 3.138656616210938 L 7.322890281677246 6.640649795532227 L 7.100290298461914 7.302900314331055 L 6.401869773864746 7.321680068969727 L 2.743729591369629 7.420022010803223 L 5.689120292663574 9.793369293212891 L 6.203590393066406 10.20792007446289 L 6.024049758911133 10.84377002716064 L 4.990640640258789 14.50372886657715 L 7.913769721984863 12.38852977752686 L 8.5 11.96433067321777 L 9.08622932434082 12.38852977752686 L 12.00935935974121 14.50372886657715 L 10.97595024108887 10.84377002716064 L 10.79640960693359 10.20792007446289 L 11.31088066101074 9.793369293212891 L 14.25626945495605 7.420022010803223 L 10.59813022613525 7.321680068969727 L 9.899709701538086 7.302900314331055 L 9.67711067199707 6.640649795532227 L 8.5 3.138656616210938 M 8.5 0 L 10.625 6.322039604187012 L 17 6.493419647216797 L 11.93832015991211 10.57204055786133 L 13.7532901763916 17 L 8.5 13.19867992401123 L 3.246709823608398 17 L 5.061679840087891 10.57204055786133 L 0 6.493419647216797 L 6.375 6.322039604187012 L 8.5 0 Z" stroke="none" fill="#707070"/>
    </g>
    <g id="Polygon_7" data-name="Polygon 7" transform="translate(25.747)" fill="#fff">
      <path d="M 12.88131999969482 15.75186920166016 L 8.793109893798828 12.79360961914063 L 8.5 12.58150959014893 L 8.206890106201172 12.79360961914063 L 4.118680477142334 15.75186920166016 L 5.542870044708252 10.70790958404541 L 5.632629871368408 10.38998031616211 L 5.375400066375732 10.18270969390869 L 1.371859192848206 6.956721305847168 L 6.388440132141113 6.821859836578369 L 6.737639904022217 6.812469959259033 L 6.848939895629883 6.481339931488037 L 8.5 1.569308280944824 L 10.15106010437012 6.481339931488037 L 10.26235961914063 6.812469959259033 L 10.61155986785889 6.821859836578369 L 15.62814044952393 6.956721305847168 L 11.62460041046143 10.18270969390869 L 11.36736965179443 10.38998031616211 L 11.45713043212891 10.70790958404541 L 12.88131999969482 15.75186920166016 Z" stroke="none"/>
      <path d="M 8.5 3.138656616210938 L 7.322890281677246 6.640649795532227 L 7.100290298461914 7.302900314331055 L 6.401869773864746 7.321680068969727 L 2.743729591369629 7.420022010803223 L 5.689120292663574 9.793369293212891 L 6.203590393066406 10.20792007446289 L 6.024049758911133 10.84377002716064 L 4.990640640258789 14.50372886657715 L 7.913769721984863 12.38852977752686 L 8.5 11.96433067321777 L 9.08622932434082 12.38852977752686 L 12.00935935974121 14.50372886657715 L 10.97595024108887 10.84377002716064 L 10.79640960693359 10.20792007446289 L 11.31088066101074 9.793369293212891 L 14.25626945495605 7.420022010803223 L 10.59813022613525 7.321680068969727 L 9.899709701538086 7.302900314331055 L 9.67711067199707 6.640649795532227 L 8.5 3.138656616210938 M 8.5 0 L 10.625 6.322039604187012 L 17 6.493419647216797 L 11.93832015991211 10.57204055786133 L 13.7532901763916 17 L 8.5 13.19867992401123 L 3.246709823608398 17 L 5.061679840087891 10.57204055786133 L 0 6.493419647216797 L 6.375 6.322039604187012 L 8.5 0 Z" stroke="none" fill="#707070"/>
    </g>
    <g id="Polygon_8" data-name="Polygon 8" transform="translate(51.747)" fill="#fff">
      <path d="M 12.88131999969482 15.75186920166016 L 8.793109893798828 12.79360961914063 L 8.5 12.58150959014893 L 8.206890106201172 12.79360961914063 L 4.118680477142334 15.75186920166016 L 5.542870044708252 10.70790958404541 L 5.632629871368408 10.38998031616211 L 5.375400066375732 10.18270969390869 L 1.371859192848206 6.956721305847168 L 6.388440132141113 6.821859836578369 L 6.737639904022217 6.812469959259033 L 6.848939895629883 6.481339931488037 L 8.5 1.569308280944824 L 10.15106010437012 6.481339931488037 L 10.26235961914063 6.812469959259033 L 10.61155986785889 6.821859836578369 L 15.62814044952393 6.956721305847168 L 11.62460041046143 10.18270969390869 L 11.36736965179443 10.38998031616211 L 11.45713043212891 10.70790958404541 L 12.88131999969482 15.75186920166016 Z" stroke="none"/>
      <path d="M 8.5 3.138656616210938 L 7.322890281677246 6.640649795532227 L 7.100290298461914 7.302900314331055 L 6.401869773864746 7.321680068969727 L 2.743729591369629 7.420022010803223 L 5.689120292663574 9.793369293212891 L 6.203590393066406 10.20792007446289 L 6.024049758911133 10.84377002716064 L 4.990640640258789 14.50372886657715 L 7.913769721984863 12.38852977752686 L 8.5 11.96433067321777 L 9.08622932434082 12.38852977752686 L 12.00935935974121 14.50372886657715 L 10.97595024108887 10.84377002716064 L 10.79640960693359 10.20792007446289 L 11.31088066101074 9.793369293212891 L 14.25626945495605 7.420022010803223 L 10.59813022613525 7.321680068969727 L 9.899709701538086 7.302900314331055 L 9.67711067199707 6.640649795532227 L 8.5 3.138656616210938 M 8.5 0 L 10.625 6.322039604187012 L 17 6.493419647216797 L 11.93832015991211 10.57204055786133 L 13.7532901763916 17 L 8.5 13.19867992401123 L 3.246709823608398 17 L 5.061679840087891 10.57204055786133 L 0 6.493419647216797 L 6.375 6.322039604187012 L 8.5 0 Z" stroke="none" fill="#707070"/>
    </g>
    <g id="Polygon_9" data-name="Polygon 9" transform="translate(77.747)" fill="#fff">
      <path d="M 12.08342456817627 15.70745372772217 L 8.304759979248047 12.80228996276855 L 8 12.56797981262207 L 7.695240020751953 12.80228996276855 L 3.916574954986572 15.70745372772217 L 5.247159957885742 10.70046043395996 L 5.327889919281006 10.39665985107422 L 5.089109897613525 10.19221973419189 L 1.30938982963562 6.95622730255127 L 6.014279842376709 6.821839809417725 L 6.36952018737793 6.811689853668213 L 6.476709842681885 6.47284984588623 L 8 1.657699823379517 L 9.523289680480957 6.47284984588623 L 9.63047981262207 6.811689853668213 L 9.985719680786133 6.821839809417725 L 14.6906099319458 6.95622730255127 L 10.91088962554932 10.19221973419189 L 10.67210960388184 10.39665985107422 L 10.75284004211426 10.70046043395996 L 12.08342456817627 15.70745372772217 Z" stroke="none"/>
      <path d="M 8 3.315431594848633 L 6.95343017578125 6.623660087585449 L 6.739040374755859 7.301340103149414 L 6.028550148010254 7.321629524230957 L 2.618746757507324 7.419025421142578 L 5.414279937744141 9.812410354614258 L 5.891850471496582 10.22128009796143 L 5.730389595031738 10.82886981964111 L 4.777414321899414 14.41491985321045 L 7.39048957824707 12.40590000152588 L 8 11.93729019165039 L 8.60951042175293 12.40590000152588 L 11.22258567810059 14.41491985321045 L 10.26960945129395 10.82886981964111 L 10.10815048217773 10.22128009796143 L 10.58572006225586 9.812410354614258 L 13.38125324249268 7.419025421142578 L 9.971449851989746 7.321629524230957 L 9.260959625244141 7.301340103149414 L 9.04656982421875 6.623660087585449 L 8 3.315431594848633 M 8 0 L 10 6.322039604187012 L 16 6.493419647216797 L 11.23607063293457 10.57204055786133 L 12.94427013397217 17 L 8 13.19867992401123 L 3.055729866027832 17 L 4.763930320739746 10.57204055786133 L 0 6.493419647216797 L 6 6.322039604187012 L 8 0 Z" stroke="none" fill="#707070"/>
    </g>
    <g id="Polygon_10" data-name="Polygon 10" transform="translate(103.747)" fill="#fff">
      <path d="M 12.88131999969482 15.75186920166016 L 8.793109893798828 12.79360961914063 L 8.5 12.58150959014893 L 8.206890106201172 12.79360961914063 L 4.118680477142334 15.75186920166016 L 5.542870044708252 10.70790958404541 L 5.632629871368408 10.38998031616211 L 5.375400066375732 10.18270969390869 L 1.371859192848206 6.956721305847168 L 6.388440132141113 6.821859836578369 L 6.737639904022217 6.812469959259033 L 6.848939895629883 6.481339931488037 L 8.5 1.569308280944824 L 10.15106010437012 6.481339931488037 L 10.26235961914063 6.812469959259033 L 10.61155986785889 6.821859836578369 L 15.62814044952393 6.956721305847168 L 11.62460041046143 10.18270969390869 L 11.36736965179443 10.38998031616211 L 11.45713043212891 10.70790958404541 L 12.88131999969482 15.75186920166016 Z" stroke="none"/>
      <path d="M 8.5 3.138656616210938 L 7.322890281677246 6.640649795532227 L 7.100290298461914 7.302900314331055 L 6.401869773864746 7.321680068969727 L 2.743729591369629 7.420022010803223 L 5.689120292663574 9.793369293212891 L 6.203590393066406 10.20792007446289 L 6.024049758911133 10.84377002716064 L 4.990640640258789 14.50372886657715 L 7.913769721984863 12.38852977752686 L 8.5 11.96433067321777 L 9.08622932434082 12.38852977752686 L 12.00935935974121 14.50372886657715 L 10.97595024108887 10.84377002716064 L 10.79640960693359 10.20792007446289 L 11.31088066101074 9.793369293212891 L 14.25626945495605 7.420022010803223 L 10.59813022613525 7.321680068969727 L 9.899709701538086 7.302900314331055 L 9.67711067199707 6.640649795532227 L 8.5 3.138656616210938 M 8.5 0 L 10.625 6.322039604187012 L 17 6.493419647216797 L 11.93832015991211 10.57204055786133 L 13.7532901763916 17 L 8.5 13.19867992401123 L 3.246709823608398 17 L 5.061679840087891 10.57204055786133 L 0 6.493419647216797 L 6.375 6.322039604187012 L 8.5 0 Z" stroke="none" fill="#707070"/>
    </g>
  </g>
</svg>
