<svg id="undraw_road_to_knowledge_m8s0" xmlns="http://www.w3.org/2000/svg" width="1097.603" height="543.482" viewBox="0 0 1097.603 543.482">
  <path id="Path_325" data-name="Path 325" d="M688.154,676.694a25.626,25.626,0,1,0,0-51.251H307.516a22.281,22.281,0,0,1,19.55-11.622h756.606a37.248,37.248,0,0,1,0,74.5H327.066a22.282,22.282,0,0,1-19.55-11.622Z" transform="translate(-219.91 -144.834)" fill="#ccc"/>
  <path id="Path_326" data-name="Path 326" d="M683.245,635.909h361.9a2.092,2.092,0,1,0,0-4.184h-361.9a2.092,2.092,0,0,0,0,4.184Z" transform="translate(-596.145 -141.18)" fill="#ccc"/>
  <path id="Path_327" data-name="Path 327" d="M683.245,647.2h361.9a2.092,2.092,0,1,0,0-4.184h-361.9a2.092,2.092,0,0,0,0,4.184Z" transform="translate(-596.145 -138.876)" fill="#ccc"/>
  <path id="Path_328" data-name="Path 328" d="M683.245,658.5h361.9a2.092,2.092,0,1,0,0-4.184h-361.9a2.092,2.092,0,0,0,0,4.184Z" transform="translate(-596.145 -136.572)" fill="#ccc"/>
  <path id="Path_329" data-name="Path 329" d="M606.495,616.754a25.626,25.626,0,1,0,0-51.251H225.857a22.281,22.281,0,0,1,19.55-11.622h756.607a37.248,37.248,0,0,1,0,74.5H245.407a22.281,22.281,0,0,1-19.55-11.622Z" transform="translate(-39.932 -157.064)" fill="#59ef4d"/>
  <path id="Path_330" data-name="Path 330" d="M601.588,575.969h361.9a2.092,2.092,0,1,0,0-4.184h-361.9a2.092,2.092,0,1,0,0,4.184Z" transform="translate(-416.168 -153.411)" fill="#ccc"/>
  <path id="Path_331" data-name="Path 331" d="M601.588,587.262h361.9a2.092,2.092,0,1,0,0-4.184h-361.9a2.092,2.092,0,0,0,0,4.184Z" transform="translate(-416.168 -151.106)" fill="#ccc"/>
  <path id="Path_332" data-name="Path 332" d="M601.587,598.555h361.9a2.092,2.092,0,0,0,0-4.184h-361.9a2.092,2.092,0,0,0,0,4.184Z" transform="translate(-416.168 -148.802)" fill="#ccc"/>
  <path id="Path_333" data-name="Path 333" d="M524.838,554.814a25.626,25.626,0,1,0,0-51.252H144.2a22.281,22.281,0,0,1,19.55-11.622H920.356a37.248,37.248,0,0,1,0,74.5H163.749a22.281,22.281,0,0,1-19.55-11.622Z" transform="translate(140.045 -169.702)" fill="#ccc"/>
  <path id="Path_334" data-name="Path 334" d="M519.93,514.029h361.9a2.092,2.092,0,1,0,0-4.184H519.93a2.092,2.092,0,1,0,0,4.184Z" transform="translate(-236.191 -166.048)" fill="#ccc"/>
  <path id="Path_335" data-name="Path 335" d="M519.93,525.322h361.9a2.092,2.092,0,1,0,0-4.184H519.93a2.092,2.092,0,1,0,0,4.184Z" transform="translate(-236.191 -163.744)" fill="#ccc"/>
  <path id="Path_336" data-name="Path 336" d="M519.93,536.615h361.9a2.092,2.092,0,1,0,0-4.184H519.93a2.092,2.092,0,1,0,0,4.184Z" transform="translate(-236.191 -161.44)" fill="#ccc"/>
  <path id="Path_337" data-name="Path 337" d="M974.705,419.225a7.826,7.826,0,0,0,7.8-7.315l1.161-17.733a7.826,7.826,0,0,0-7.3-8.321l-138.93-9.1a16.712,16.712,0,0,0-2.184,33.353l138.93,9.1Q974.444,419.223,974.705,419.225Z" transform="translate(-699.324 -193.211)" fill="#59ef4d"/>
  <path id="Path_338" data-name="Path 338" d="M964.6,421.786a7.836,7.836,0,0,0,7.818-7.535l.99-26.486a7.826,7.826,0,0,0-7.529-8.113l-114.246-4.27a7.827,7.827,0,0,0-8.113,7.529l-.99,26.486a7.826,7.826,0,0,0,7.529,8.113L964.3,421.78C964.4,421.783,964.5,421.786,964.6,421.786Z" transform="translate(-716.611 -193.485)" fill="#2f2e41"/>
  <path id="Path_339" data-name="Path 339" d="M947.6,644.453h17.772a7.835,7.835,0,0,0,7.826-7.826V488.513a7.835,7.835,0,0,0-7.826-7.826H947.6a7.835,7.835,0,0,0-7.826,7.826V636.627A7.835,7.835,0,0,0,947.6,644.453Z" transform="translate(-833.49 -171.998)" fill="#2f2e41"/>
  <path id="Path_340" data-name="Path 340" d="M968.422,577.162l15.2-9.212a7.835,7.835,0,0,0,2.636-10.75L909.481,430.539a7.835,7.835,0,0,0-10.749-2.636l-15.2,9.212a7.835,7.835,0,0,0-2.636,10.75l76.775,126.662a7.835,7.835,0,0,0,10.749,2.635Z" transform="translate(-775.435 -182.998)" fill="#2f2e41"/>
  <ellipse id="Ellipse_44" data-name="Ellipse 44" cx="61.406" cy="61.406" rx="61.406" ry="61.406" transform="translate(79.693 31.305)" fill="#59ef4d"/>
  <path id="Path_341" data-name="Path 341" d="M911.494,325.5a14.564,14.564,0,0,0,5.318-3.122,9.793,9.793,0,0,0,2.863-7.753,6.588,6.588,0,0,0-2.929-5.07c-2.2-1.409-5.133-1.413-8.123-.095l.113-23.972-2.408-.011-.133,28.182,1.855-1.167c2.151-1.351,5.224-2.3,7.4-.909a4.231,4.231,0,0,1,1.832,3.274,7.4,7.4,0,0,1-2.128,5.781c-2.659,2.54-6.539,3.334-10.962,4.044l.382,2.377a39.685,39.685,0,0,0,6.926-1.558Z" transform="translate(-737.156 -211.827)" fill="#2f2e41"/>
  <rect id="Rectangle_28" data-name="Rectangle 28" width="2.408" height="12.969" transform="translate(183.858 76.542) rotate(-97.523)" fill="#2f2e41"/>
  <rect id="Rectangle_29" data-name="Rectangle 29" width="2.408" height="12.969" transform="translate(143.272 81.901) rotate(-97.523)" fill="#2f2e41"/>
  <path id="Path_342" data-name="Path 342" d="M896.933,551.818h103.547a10.246,10.246,0,0,0,10.234-10.234L989.037,375.349a10.222,10.222,0,0,0-10.229-10.157H942.061A55.424,55.424,0,0,0,886.7,420.554v121.03A10.246,10.246,0,0,0,896.933,551.818Z" transform="translate(-807.109 -195.563)" fill="#2f2e41"/>
  <path id="Path_343" data-name="Path 343" d="M943.835,482.344A7.839,7.839,0,0,0,945,490.78l11.618,13.447a7.826,7.826,0,0,0,11.038.805l105.354-91.022a16.711,16.711,0,1,0-21.85-25.291L945.806,479.741a7.785,7.785,0,0,0-1.971,2.6Z" transform="translate(-943.098 -191.592)" fill="#59ef4d"/>
  <path id="Path_344" data-name="Path 344" d="M935.9,454.27a7.838,7.838,0,0,0,1.165,8.436l19.845,22.969a7.835,7.835,0,0,0,11.038.805l86.511-74.742a7.826,7.826,0,0,0,.806-11.039l-19.844-22.969a7.825,7.825,0,0,0-11.038-.805l-86.511,74.742a7.788,7.788,0,0,0-1.971,2.6Z" transform="translate(-911.912 -193.557)" fill="#2f2e41"/>
  <path id="Path_345" data-name="Path 345" d="M969.242,280.6c8.209-6.793,19.182-.368,28.465-1.28,8.881-.872,16.03-8.688,17.977-17.1,2.273-9.812-2.654-19.78-10.074-26.066-8.127-6.884-19.039-9.024-29.438-7.976-11.918,1.2-22.9,6.537-32.783,13.056a146.709,146.709,0,0,0-26.228,21.382c-7.068,7.515-13.107,16.517-15.176,26.771-1.88,9.318-.777,19.7,4.6,27.731a29.145,29.145,0,0,0,11.227,9.613c4.7,2.418,9.72,4.178,14.262,6.9,6.868,4.111,13.459,12.49,11.121,21.034a11.792,11.792,0,0,1-2.776,4.993c-1.586,1.7-4.346-.637-2.755-2.337,2.794-2.985,2.763-7.038,1.374-10.692a19.592,19.592,0,0,0-8.526-9.741c-4.755-2.84-10.03-4.637-14.909-7.234a32.535,32.535,0,0,1-11.744-10.115c-5.741-8.306-7.3-19-5.777-28.845,1.65-10.648,7.32-20.246,14.35-28.245,7.651-8.705,16.986-16.02,26.5-22.569,10.213-7.028,21.461-12.919,33.821-14.893,10.714-1.711,22.266-.313,31.493,5.684,8.613,5.6,15.119,15.068,15.585,25.521a26.772,26.772,0,0,1-12.947,23.769,23,23,0,0,1-13.8,2.921c-5.124-.426-10.229-2.094-15.4-1.756a10.765,10.765,0,0,0-6.39,2.442c-1.794,1.484-3.841-1.495-2.062-2.967Z" transform="translate(-829.292 -224.308)" fill="#2f2e41"/>
  <path id="Path_346" data-name="Path 346" d="M956.07,539.623q-.033-.2-.077-.407a7.773,7.773,0,0,0-3.408-4.926l-14.934-9.633a7.836,7.836,0,0,0-10.819,2.335l-46.068,71.423a7.828,7.828,0,0,0,2.335,10.819l14.934,9.632a7.836,7.836,0,0,0,10.819-2.335l46.068-71.423a7.77,7.77,0,0,0,1.15-5.486Z" transform="translate(-743.915 -163.28)" fill="#2f2e41"/>
</svg>
