<svg xmlns="http://www.w3.org/2000/svg" xmlns:xlink="http://www.w3.org/1999/xlink" width="667.142" height="530.38" viewBox="0 0 667.142 530.38">
  <defs>
    <linearGradient id="linear-gradient" x1="0.5" y1="1" x2="0.5" gradientUnits="objectBoundingBox">
      <stop offset="0" stop-color="gray" stop-opacity="0.251"/>
      <stop offset="0.54" stop-color="gray" stop-opacity="0.122"/>
      <stop offset="1" stop-color="gray" stop-opacity="0.102"/>
    </linearGradient>
  </defs>
  <g id="undraw_book_lover_mkck" transform="translate(0 -0.008)">
    <path id="Path_1" data-name="Path 1" d="M484.462,142.1c-42.213-1.468-82.424-15.093-120.815-30S287.23,80.664,246.028,72.766c-26.5-5.081-56.81-5.8-78.158,8.407-20.552,13.7-27.192,37.276-30.76,59.178-2.687,16.476-4.266,33.812,3.1,49.238,5.107,10.71,14.18,19.711,20.448,30,21.831,35.691,6.405,79.7-17.252,114.553-11.088,16.352-23.97,31.96-32.527,49.349s-12.523,37.341-5.035,55.1C113.27,456.2,130.966,469.4,150.128,478.7c38.932,18.882,84.792,24.283,129.542,27.342,99.03,6.777,198.582,3.842,297.873.907,36.747-1.089,73.651-2.191,109.8-7.873,20.076-3.157,40.8-8.16,55.376-20.252,18.5-15.347,23.083-41.339,10.69-60.58-20.8-32.28-78.269-40.3-92.827-74.943-8-19.065.222-40.3,11.845-57.991,24.942-37.934,66.744-71.218,68.948-114.579,1.513-29.788-18.589-59.609-49.662-73.7C659.146,82.2,613.971,84.076,589.956,108.528,565.21,133.724,521.731,143.391,484.462,142.1Z" transform="translate(-93.207 -52.465)" fill="#6c63ff" opacity="0.1"/>
    <path id="Path_2" data-name="Path 2" d="M304.593,588.809,81.343,587.72,59.16,535.69,137.6,530l-13.671-57.045L279.07,452.842,130.509,401.2l13.123-3.118,238.884,38.972L369.36,526.076,350.556,575Z" transform="translate(-20.573 -138.432)" fill="#6c63ff"/>
    <path id="Path_3" data-name="Path 3" d="M187,698.726s13.7-2.192,21.915,7.488c0,0-6.027,4.748-18.993-1.826Z" transform="translate(-122.806 -271.231)" fill="#6c63ff"/>
    <path id="Path_4" data-name="Path 4" d="M181.8,698.51s-8.74,10.755-4.435,22.731c0,0,7.122-2.85,7.9-17.369Z" transform="translate(-119.041 -271.229)" fill="#6c63ff"/>
    <path id="Path_5" data-name="Path 5" d="M172.76,669.545s5.479-10.051,27.394,4.018c0,0-2.922,6.757-12.6,6.209S175.317,674.842,172.76,669.545Z" transform="translate(-117.854 -259.947)" fill="#6c63ff"/>
    <path id="Path_6" data-name="Path 6" d="M163.941,670.284s-11.369-1.3-12.471,24.72c0,0,7.207,1.494,12.327-6.738S166.817,675.417,163.941,670.284Z" transform="translate(-110.45 -261.41)" fill="#6c63ff"/>
    <path id="Path_7" data-name="Path 7" d="M160.44,633.321s6.392-17.715,29.586-5.114c0,0-5.3,16.254-27.212,11.14Z" transform="translate(-113.57 -245.207)" fill="#6c63ff"/>
    <path id="Path_8" data-name="Path 8" d="M149.52,593.4s12.054-17.9,33.421-1.3c0,0-7.488,16.8-31.595,7.67Z" transform="translate(-109.772 -231.773)" fill="#6c63ff"/>
    <path id="Path_9" data-name="Path 9" d="M145.6,555.324s14.062-16.443,35.221,0c0,0-13.332,14.427-35.221,4.2Z" transform="translate(-108.409 -218.894)" fill="#6c63ff"/>
    <path id="Path_10" data-name="Path 10" d="M142.24,517.474s14.245-17.167,34.517-.913c0,0-16.071,15.158-34.517,4.931Z" transform="translate(-107.241 -205.523)" fill="#6c63ff"/>
    <path id="Path_11" data-name="Path 11" d="M144.2,481.8s15-22.1,33.969-7.122c0,0-16.071,18.993-33.969,11.323Z" transform="translate(-107.922 -191.579)" fill="#6c63ff"/>
    <path id="Path_12" data-name="Path 12" d="M149.52,443.344s15.889-21.915,34.334-5.114c0,0-18.811,18.993-34.334,9.131Z" transform="translate(-109.772 -178.511)" fill="#6c63ff"/>
    <path id="Path_13" data-name="Path 13" d="M157.2,407.023s18.811-20.6,35.221-12.393c0,0-19.6,21.876-36.043,17.859Z" transform="translate(-112.158 -164.882)" fill="#6c63ff"/>
    <path id="Path_14" data-name="Path 14" d="M166.9,371.8s21.707-25.229,34.334-16.8c0,0-15.993,19.567-35.873,21.524Z" transform="translate(-115.281 -151.173)" fill="#6c63ff"/>
    <path id="Path_15" data-name="Path 15" d="M180.91,334.739s19-20.6,32.88-15.484c0,0-16.254,21.368-35.43,21.915Z" transform="translate(-119.802 -139.057)" fill="#6c63ff"/>
    <path id="Path_16" data-name="Path 16" d="M194.953,298.766s21-19.724,30.134-16.254c0,0-15.158,21.915-31.047,20.637Z" transform="translate(-125.254 -126.421)" fill="#6c63ff"/>
    <path id="Path_17" data-name="Path 17" d="M208.32,262.965s18.08-23.566,27.949-21.739c0,0-10.964,21.009-27.949,24.133Z" transform="translate(-130.22 -112.171)" fill="#6c63ff"/>
    <path id="Path_18" data-name="Path 18" d="M221.949,220.451s15.98-18.061,24.616-18.021c0,0-12.614,24.133-25.274,23.911Z" transform="translate(-134.731 -98.714)" fill="#6c63ff"/>
    <path id="Path_19" data-name="Path 19" d="M229.533,180.341l15.439-37.621s.77,34.008-17.4,44.6Z" transform="translate(-136.915 -77.95)" fill="#6c63ff"/>
    <path id="Path_20" data-name="Path 20" d="M240.134,118.675s2.557-31.419.913-33.975c0,0,11.036,26.122-1.017,47.855Z" transform="translate(-141.248 -57.773)" fill="#6c63ff"/>
    <path id="Path_21" data-name="Path 21" d="M145.46,636.75s-16.006-9.921-26.37,14.349c0,0,14.245,9.457,28.255-8.16Z" transform="translate(-99.19 -249.054)" fill="#6c63ff"/>
    <path id="Path_22" data-name="Path 22" d="M133.185,595.491s-19.633-8.955-29.155,16.384c0,0,15.165,10.436,30.942-9.979Z" transform="translate(-93.953 -234.87)" fill="#6c63ff"/>
    <path id="Path_23" data-name="Path 23" d="M125.421,557.634s-14.062-16.443-35.221,0c0,0,13.332,14.427,35.221,4.2Z" transform="translate(-89.143 -219.697)" fill="#6c63ff"/>
    <path id="Path_24" data-name="Path 24" d="M123.1,517.474s-14.245-17.167-34.517-.913c0,0,16.071,15.158,34.517,4.931Z" transform="translate(-88.58 -205.523)" fill="#6c63ff"/>
    <path id="Path_25" data-name="Path 25" d="M127.292,480.39S117.3,455.638,95.58,466.282c0,0,11.74,21.948,30.825,18.217Z" transform="translate(-91.014 -189.546)" fill="#6c63ff"/>
    <path id="Path_26" data-name="Path 26" d="M134.41,440.411s-9.934-25.183-31.96-13.508c0,0,13.488,23.083,30.982,17.4Z" transform="translate(-93.403 -175.702)" fill="#6c63ff"/>
    <path id="Path_27" data-name="Path 27" d="M149.066,398.811S145.153,371.2,126.89,368.73c0,0,3.874,29.116,19.717,35.058Z" transform="translate(-101.903 -156.546)" fill="#6c63ff"/>
    <path id="Path_28" data-name="Path 28" d="M159.566,363.405s-1.526-33.264-16.626-34.425c0,0,.509,25.248,14.923,39.135Z" transform="translate(-107.484 -142.723)" fill="#6c63ff"/>
    <path id="Path_29" data-name="Path 29" d="M174.585,325.45s-4.5-27.662-18.915-31.04c0,0,1.787,26.788,17.487,37.83Z" transform="translate(-111.911 -130.701)" fill="#6c63ff"/>
    <path id="Path_30" data-name="Path 30" d="M192.617,290.379s-.15-28.816-8.955-33.049c0,0-5.459,26.09,6.405,36.728Z" transform="translate(-121.209 -117.806)" fill="#6c63ff"/>
    <path id="Path_31" data-name="Path 31" d="M203.639,256.061s-1.233-29.671-10.351-33.851c0,0-3.118,23.481,8.988,35.8Z" transform="translate(-124.868 -105.593)" fill="#6c63ff"/>
    <path id="Path_32" data-name="Path 32" d="M219.618,217.8s-.052-24.133-6.562-29.794c0,0-6.47,26.435,3.163,34.647Z" transform="translate(-131.128 -93.7)" fill="#6c63ff"/>
    <path id="Path_33" data-name="Path 33" d="M224.743,177.165,218.41,137s-8.6,32.912,6.633,47.418Z" transform="translate(-132.888 -75.96)" fill="#6c63ff"/>
    <path id="Path_34" data-name="Path 34" d="M222.809,121.373s-16.254-27-15.921-30c0,0,1.728,28.3,22.176,42.4Z" transform="translate(-129.72 -60.092)" fill="#6c63ff"/>
    <path id="Path_35" data-name="Path 35" d="M222.341,103.037S207,64.685,200.06,61.58c0,0,21.915,11.14,23.559,40.361Z" transform="translate(-127.348 -49.733)" fill="#6c63ff"/>
    <path id="Path_36" data-name="Path 36" d="M220.61,198.384l-1.05-.32c12.947-42.22,16.176-69.138,9.1-75.889l.75-.8C236.916,128.5,233.87,155.127,220.61,198.384Z" transform="translate(-134.129 -70.528)" fill="#444053"/>
    <path id="Path_37" data-name="Path 37" d="M165.682,336.649l-1.552-.554c1.376-3.868,2.857-7.794,4.409-11.662,13.514-33.682,25.02-65.016,32.4-89.07l1.35-.652c-7.39,24.1-18.693,56.634-32.221,90.362C168.52,328.868,167.046,332.775,165.682,336.649Z" transform="translate(-114.853 -109.94)" fill="#444053"/>
    <path id="Path_38" data-name="Path 38" d="M189.9,621.427c-.209-.228-21.191-23.859-35.821-64.2a237.532,237.532,0,0,1-14.134-73.56c-1-31.393,5.583-66.444,16.867-98.287l1.226,1.435c-25.333,71.466-15.269,132.705-1.918,169.583,14.473,39.976,35.221,63.346,35.423,63.581Z" transform="translate(-106.408 -162.336)" fill="#444053"/>
    <path id="Path_39" data-name="Path 39" d="M645.919,670.36s-14.786,18.048-3.046,45.331l-118.056,51.2-11.33,2.374-5.218-22.829,3.49-28.809V701.883Z" transform="translate(-234.53 -261.44)" fill="#d5d6db"/>
    <path id="Path_40" data-name="Path 40" d="M59.16,593.178l163.4-29.788,216.512,34.491L304.593,646.3Z" transform="translate(-20.573 -195.92)" fill="#6c63ff"/>
    <path id="Path_41" data-name="Path 41" d="M59.16,593.178l163.4-29.788,216.512,34.491L304.593,646.3Z" transform="translate(-20.573 -195.92)" fill="#6c63ff"/>
    <path id="Path_42" data-name="Path 42" d="M144.46,652.47s-15.282,28.953,2.328,55.695L389.1,760.671s-15.041-23.063.776-55.075Z" transform="translate(-105.874 -255.219)" fill="#6c63ff"/>
    <path id="Path_43" data-name="Path 43" d="M144.46,652.47s-15.282,28.953,2.328,55.695L389.1,760.671s-15.041-23.063.776-55.075Z" transform="translate(-105.874 -255.219)" opacity="0.1"/>
    <path id="Path_44" data-name="Path 44" d="M156.74,667.86s-8.734,21.185,0,34.895" transform="translate(-110.933 -260.571)" opacity="0.1"/>
    <path id="Path_45" data-name="Path 45" d="M393.618,787.583,528.894,729.86s7.566,1.631,2.674,7.175-135.34,56.093-135.34,56.093L151.31,735.078Z" transform="translate(-110.395 -282.131)" fill="#6c63ff"/>
    <path id="Path_46" data-name="Path 46" d="M393.618,787.583,528.894,729.86s7.566,1.631,2.674,7.175-135.34,56.093-135.34,56.093L151.31,735.078Z" transform="translate(-110.395 -282.131)" opacity="0.1"/>
    <path id="Path_47" data-name="Path 47" d="M502.719,742.86s-13.045,15.654,0,39.135" transform="translate(-230.583 -286.652)" opacity="0.1"/>
    <rect id="Rectangle_2" data-name="Rectangle 2" width="61.683" height="0.652" transform="translate(276.78 475.463) rotate(-18.45)" opacity="0.1"/>
    <rect id="Rectangle_3" data-name="Rectangle 3" width="75.158" height="0.652" transform="translate(276.758 480.714) rotate(-20.82)" opacity="0.1"/>
    <rect id="Rectangle_4" data-name="Rectangle 4" width="87.114" height="0.652" transform="translate(277.15 486.904) rotate(-22.26)" opacity="0.1"/>
    <rect id="Rectangle_5" data-name="Rectangle 5" width="100.276" height="0.652" transform="translate(278.091 492.362) rotate(-24.31)" opacity="0.1"/>
    <rect id="Rectangle_6" data-name="Rectangle 6" width="109.675" height="0.652" transform="matrix(0.916, -0.401, 0.401, 0.916, 278.816, 495.018)" opacity="0.1"/>
    <rect id="Rectangle_7" data-name="Rectangle 7" width="131.244" height="0.652" transform="translate(280.333 499.479) rotate(-23.36)" opacity="0.1"/>
    <path id="Path_48" data-name="Path 48" d="M152.23,601.073,267.025,576.94l69.934,13.371L242.892,620.64Z" transform="translate(-52.939 -200.632)" fill="#fff" opacity="0.3"/>
    <path id="Path_49" data-name="Path 49" d="M658.5,659.69s5.935,2.394,2.453,6.092S524,708.106,524,708.106Z" transform="translate(-240 -257.729)" fill="#6c63ff"/>
    <path id="Path_50" data-name="Path 50" d="M745.213,574.18s-14.78,18.041-3.039,45.331l-118.056,51.2-11.33,2.387-5.218-22.828,3.542-28.8V605.7Z" transform="translate(-269.062 -227.993)" fill="#d5d6db"/>
    <path id="Path_51" data-name="Path 51" d="M158.46,496.991,321.853,467.21,538.372,501.7,403.893,550.117Z" transform="translate(-55.106 -162.473)" fill="#3a3768"/>
    <path id="Path_52" data-name="Path 52" d="M243.718,556.29s-15.289,28.953,2.322,55.7l242.308,52.505s-15.034-23.083.8-55.082Z" transform="translate(-140.389 -221.771)" fill="#3a3768"/>
    <path id="Path_53" data-name="Path 53" d="M243.718,556.29s-15.289,28.953,2.322,55.7l242.308,52.505s-15.034-23.083.8-55.082l-76.626-16.587Z" transform="translate(-140.389 -221.771)" opacity="0.1"/>
    <path id="Path_54" data-name="Path 54" d="M256.032,571.68s-8.727,21.179,0,34.9" transform="translate(-145.464 -227.123)" opacity="0.1"/>
    <path id="Path_55" data-name="Path 55" d="M492.908,691.4,628.19,633.68s7.559,1.631,2.668,7.175-135.341,56.093-135.341,56.093L250.6,638.9Z" transform="translate(-144.924 -248.684)" fill="#3a3768"/>
    <path id="Path_56" data-name="Path 56" d="M492.908,691.4,628.19,633.68s7.559,1.631,2.668,7.175-135.341,56.093-135.341,56.093L250.6,638.9Z" transform="translate(-144.924 -248.684)" opacity="0.1"/>
    <path id="Path_57" data-name="Path 57" d="M602.009,646.68s-13.045,15.654,0,39.135" transform="translate(-265.112 -253.205)" opacity="0.1"/>
    <rect id="Rectangle_8" data-name="Rectangle 8" width="61.683" height="0.652" transform="translate(341.546 412.737) rotate(-18.45)" opacity="0.1"/>
    <rect id="Rectangle_9" data-name="Rectangle 9" width="75.158" height="0.652" transform="translate(341.532 417.986) rotate(-20.82)" opacity="0.1"/>
    <rect id="Rectangle_10" data-name="Rectangle 10" width="87.114" height="0.652" transform="translate(341.915 424.166) rotate(-22.26)" opacity="0.1"/>
    <rect id="Rectangle_11" data-name="Rectangle 11" width="100.276" height="0.652" transform="translate(342.863 429.626) rotate(-24.31)" opacity="0.1"/>
    <rect id="Rectangle_12" data-name="Rectangle 12" width="109.675" height="0.652" transform="matrix(0.916, -0.401, 0.401, 0.916, 343.579, 432.273)" opacity="0.1"/>
    <rect id="Rectangle_13" data-name="Rectangle 13" width="131.244" height="0.652" transform="translate(345.1 436.734) rotate(-23.36)" opacity="0.1"/>
    <path id="Path_58" data-name="Path 58" d="M251.53,504.893,366.325,480.76l69.934,13.371L342.192,524.46Z" transform="translate(-87.471 -167.185)" fill="#fff" opacity="0.45"/>
    <path id="Path_59" data-name="Path 59" d="M757.81,563.51s5.929,2.394,2.452,6.086S623.33,611.919,623.33,611.919Z" transform="translate(-274.543 -224.282)" fill="#3a3768"/>
    <path id="Path_60" data-name="Path 60" d="M754.623,464.15s-14.786,32.4-3.046,59.68L633.521,560.682l-11.3,2.394L617,540.247l3.489-28.81V495.673Z" transform="translate(-272.342 -189.729)" fill="#d5d6db"/>
    <path id="Path_61" data-name="Path 61" d="M167.89,386.968l163.4-29.788,216.519,34.491L413.323,440.087Z" transform="translate(-58.385 -124.209)" fill="#6c63ff"/>
    <path id="Path_62" data-name="Path 62" d="M253.181,446.26s-15.308,28.953,2.3,55.7l242.308,52.505s-15.041-23.083.8-55.075Z" transform="translate(-143.675 -183.508)" fill="#6c63ff"/>
    <path id="Path_63" data-name="Path 63" d="M253.181,446.26s-15.308,28.953,2.3,55.7l242.308,52.505s-15.041-23.083.8-55.075Z" transform="translate(-143.675 -183.508)" opacity="0.1"/>
    <path id="Path_64" data-name="Path 64" d="M265.471,461.65s-8.734,21.185,0,34.9" transform="translate(-148.745 -188.86)" opacity="0.1"/>
    <path id="Path_65" data-name="Path 65" d="M502.348,584.156l135.275-43.374s7.566,1.631,2.674,7.175S504.957,589.7,504.957,589.7L260.04,531.65Z" transform="translate(-148.206 -213.203)" fill="#6c63ff"/>
    <path id="Path_66" data-name="Path 66" d="M502.348,584.156l135.275-43.374s7.566,1.631,2.674,7.175S504.957,589.7,504.957,589.7L260.04,531.65Z" transform="translate(-148.206 -213.203)" opacity="0.1"/>
    <path id="Path_67" data-name="Path 67" d="M611.449,536.65s-13.045,15.654,0,39.135" transform="translate(-268.395 -214.941)" opacity="0.1"/>
    <rect id="Rectangle_14" data-name="Rectangle 14" width="61.683" height="0.652" transform="translate(347.705 340.969) rotate(-18.45)" opacity="0.1"/>
    <rect id="Rectangle_15" data-name="Rectangle 15" width="75.158" height="0.652" transform="translate(347.687 346.221) rotate(-20.82)" opacity="0.1"/>
    <rect id="Rectangle_16" data-name="Rectangle 16" width="87.114" height="0.652" transform="translate(348.063 352.406) rotate(-22.26)" opacity="0.1"/>
    <rect id="Rectangle_17" data-name="Rectangle 17" width="100.276" height="0.652" transform="translate(349.021 357.859) rotate(-24.31)" opacity="0.1"/>
    <rect id="Rectangle_18" data-name="Rectangle 18" width="109.675" height="0.652" transform="matrix(0.916, -0.401, 0.401, 0.916, 349.739, 360.513)" opacity="0.1"/>
    <rect id="Rectangle_19" data-name="Rectangle 19" width="131.244" height="0.652" transform="translate(351.259 364.978) rotate(-23.36)" opacity="0.1"/>
    <path id="Path_68" data-name="Path 68" d="M260.96,394.863,375.755,370.73,445.688,384.1,351.622,414.43Z" transform="translate(-90.751 -128.921)" fill="#fff" opacity="0.3"/>
    <path id="Path_69" data-name="Path 69" d="M767.239,453.48s5.935,2.394,2.452,6.092S632.76,501.9,632.76,501.9Z" transform="translate(-277.822 -186.018)" fill="#6c63ff"/>
    <path id="Path_70" data-name="Path 70" d="M387.2,149.9s-24.785-1.494-21.889,15.9a4.242,4.242,0,0,0,2.2,4.468s.046-1.3,2.544-.854a11.121,11.121,0,0,0,2.7.13,5.622,5.622,0,0,0,3.294-1.357h0s6.972-2.883,9.686-14.284c0,0,2.009-2.485,1.957-3.124l-4.2,1.787s1.428,3.02.307,5.531c0,0-.137-5.42-.946-5.3-.163,0-2.172,1.05-2.172,1.05s2.459,5.264.6,9.086c0,0,.7-6.483-1.37-8.707l-2.948,1.722s2.876,5.433.926,9.868c0,0,.5-6.8-1.546-9.451l-2.674,2.087s2.707,5.355,1.057,9.034c0,0-.215-7.918-1.631-8.518a16.117,16.117,0,0,0-2.694,2.909s1.852,3.913.7,5.942c0,0-.7-5.277-1.3-5.3,0,0-2.329,3.5-2.57,5.87a12.694,12.694,0,0,1,2-6.222,6.986,6.986,0,0,0-3.561,1.846s.359-2.472,4.142-2.687c0,0,1.924-2.655,2.439-2.811,0,0-3.763-.32-6.04.691,0,0,2.009-2.329,6.725-1.3l2.609-2.152s-4.944-.652-7.044.072c0,0,2.42-2.061,7.755-.561l2.876-1.715a26.138,26.138,0,0,0-6.731-.581s2.648-1.428,7.573.117l2.048-.92s-3.085-.607-3.992-.7-.952-.346-.952-.346a10.769,10.769,0,0,1,5.805.652S387.289,150.177,387.2,149.9Z" transform="translate(-184.734 -80.436)" fill="#6c63ff"/>
    <path id="Path_71" data-name="Path 71" d="M921.8,259.483s-24.785-1.494-21.89,15.9a4.242,4.242,0,0,0,2.2,4.468s.046-1.3,2.544-.854a11.493,11.493,0,0,0,2.7.13,5.6,5.6,0,0,0,3.261-1.357h0s6.979-2.883,9.686-14.284c0,0,2.009-2.485,1.957-3.124l-4.187,1.787s1.428,3.02.306,5.531c0,0-.137-5.42-.939-5.3-.163,0-2.178,1.05-2.178,1.05s2.459,5.264.607,9.086c0,0,.7-6.483-1.376-8.707l-2.948,1.722s2.877,5.433.926,9.868c0,0,.5-6.8-1.546-9.451l-2.668,2.087s2.7,5.355,1.05,9.034c0,0-.215-7.918-1.631-8.518a16.359,16.359,0,0,0-2.694,2.909s1.852,3.913.7,5.942c0,0-.7-5.277-1.3-5.3,0,0-2.329,3.5-2.57,5.87a12.654,12.654,0,0,1,2.009-6.222,7.018,7.018,0,0,0-3.568,1.846s.365-2.472,4.142-2.687c0,0,1.924-2.655,2.439-2.818,0,0-3.757-.313-6.04.7,0,0,2.009-2.329,6.725-1.3l2.609-2.152s-4.951-.652-7.044.072c0,0,2.413-2.061,7.755-.561l2.87-1.715a26.136,26.136,0,0,0-6.731-.581s2.648-1.428,7.573.117l2.054-.92s-3.091-.607-4-.7-.952-.346-.952-.346a10.69,10.69,0,0,1,5.805.652S921.882,259.757,921.8,259.483Z" transform="translate(-370.645 -118.544)" fill="#6c63ff" opacity="0.1"/>
    <path id="Path_72" data-name="Path 72" d="M448.4,306.935s-10.8-22.391-24.55-11.356a4.236,4.236,0,0,0-2.824,4.1s1.141-.594,1.957,1.807a11.553,11.553,0,0,0,1.2,2.413,5.629,5.629,0,0,0,2.8,2.218h0s5.916,4.683,17.193,1.487c0,0,3.15.541,3.666.163l-3.6-2.785s-1.957,2.72-4.683,2.961c0,0,4.67-2.759,4.168-3.4-.1-.13-1.957-1.389-1.957-1.389s-3.4,4.716-7.638,4.957c0,0,6-2.544,6.927-5.446l-2.935-1.735s-3.346,5.166-8.166,5.622c0,0,6.183-2.876,7.494-5.955l-3.118-1.3s-3.359,4.97-7.377,5.329c0,0,6.81-4.05,6.64-5.583a16.534,16.534,0,0,0-3.855-.933s-2.492,3.516-4.84,3.516c0,0,4.259-3.189,4-3.7,0,0-4.187-.326-6.392.652a12.7,12.7,0,0,1,6.412-1.3,7.024,7.024,0,0,0-3.352-2.211s2.335-.887,4.363,2.3c0,0,3.261.385,3.646.757,0,0-1.559-3.431-3.548-4.925,0,0,3.013.607,4.39,5.218l3.163,1.252s-1.82-4.644-3.5-6.111c0,0,2.974,1.1,4.272,6.522l2.9,1.67a25.8,25.8,0,0,0-2.772-6.157s2.537,1.618,3.587,6.666l1.807,1.344s-.978-2.994-1.3-3.829-.163-1-.163-1a10.7,10.7,0,0,1,2.27,5.381S448.167,307.131,448.4,306.935Z" transform="translate(-204.189 -130.045)" fill="#6c63ff" opacity="0.1"/>
    <path id="Path_73" data-name="Path 73" d="M832.182,203.316s-10.795-22.391-24.55-11.356a4.244,4.244,0,0,0-2.824,4.1s1.148-.587,1.957,1.807a11.307,11.307,0,0,0,1.207,2.42,5.6,5.6,0,0,0,2.792,2.211h0s5.922,4.683,17.193,1.494c0,0,3.15.535,3.672.157l-3.581-2.792s-1.957,2.726-4.677,2.968c0,0,4.664-2.766,4.161-3.4-.1-.13-1.957-1.389-1.957-1.389s-3.392,4.716-7.638,4.957c0,0,6.007-2.544,6.933-5.44l-2.981-1.722s-3.34,5.159-8.166,5.622c0,0,6.183-2.883,7.5-5.962l-3.124-1.3s-3.359,4.977-7.37,5.329c0,0,6.8-4.05,6.633-5.577a16.135,16.135,0,0,0-3.848-.933s-2.491,3.509-4.846,3.509c0,0,4.266-3.189,4-3.7,0,0-4.187-.326-6.4.652a12.692,12.692,0,0,1,6.411-1.3,6.985,6.985,0,0,0-3.346-2.211s2.335-.887,4.364,2.3c0,0,3.261.391,3.646.763,0,0-1.559-3.437-3.555-4.931,0,0,3.013.613,4.39,5.251l3.17,1.252s-1.82-4.65-3.5-6.118c0,0,2.974,1.1,4.266,6.522l2.9,1.67A26.047,26.047,0,0,0,822.248,192s2.544,1.618,3.588,6.666l1.807,1.344s-.972-2.994-1.3-3.829-.163-1-.163-1a10.731,10.731,0,0,1,2.263,5.381S831.98,203.524,832.182,203.316Z" transform="translate(-337.651 -94.01)" fill="#6c63ff" opacity="0.1"/>
    <path id="Path_74" data-name="Path 74" d="M885.062,373.122s-10.795-22.4-24.57-11.362a4.244,4.244,0,0,0-2.824,4.1s1.148-.587,1.956,1.807a11.313,11.313,0,0,0,1.2,2.42,5.6,5.6,0,0,0,2.792,2.211h0s5.922,4.69,17.2,1.494c0,0,3.144.541,3.666.157l-3.6-2.785s-1.956,2.726-4.683,2.968c0,0,4.664-2.766,4.162-3.4-.1-.13-1.957-1.389-1.957-1.389s-3.392,4.716-7.638,4.964c0,0,6.007-2.55,6.933-5.446l-2.942-1.735s-3.339,5.166-8.166,5.622c0,0,6.183-2.883,7.5-5.962l-3.124-1.3s-3.359,4.97-7.37,5.329c0,0,6.809-4.051,6.64-5.583a16.2,16.2,0,0,0-3.855-.933s-2.492,3.509-4.846,3.509c0,0,4.266-3.19,4-3.7,0,0-4.187-.326-6.4.652a12.732,12.732,0,0,1,6.418-1.3,6.974,6.974,0,0,0-3.353-2.211s2.335-.894,4.364,2.3c0,0,3.261.385,3.646.757,0,0-1.559-3.431-3.548-4.931,0,0,3.014.613,4.39,5.251l3.163,1.252s-1.82-4.65-3.5-6.112c0,0,2.974,1.1,4.266,6.522l2.9,1.663a26.047,26.047,0,0,0-2.779-6.157s2.544,1.618,3.594,6.672l1.807,1.3s-.978-2.994-1.3-3.829-.163-1-.163-1a10.664,10.664,0,0,1,2.263,5.381S884.859,373.318,885.062,373.122Z" transform="translate(-356.034 -153.059)" fill="#6c63ff" opacity="0.1"/>
    <ellipse id="Ellipse_14" data-name="Ellipse 14" cx="14.995" cy="1.676" rx="14.995" ry="1.676" transform="translate(116.725 508.113)" fill="#6c63ff" opacity="0.1"/>
    <ellipse id="Ellipse_15" data-name="Ellipse 15" cx="14.995" cy="1.676" rx="14.995" ry="1.676" transform="translate(18.426 479.623)" fill="#6c63ff" opacity="0.1"/>
    <ellipse id="Ellipse_16" data-name="Ellipse 16" cx="14.995" cy="1.676" rx="14.995" ry="1.676" transform="translate(191.655 527.035)" fill="#6c63ff" opacity="0.1"/>
    <ellipse id="Ellipse_17" data-name="Ellipse 17" cx="14.995" cy="1.676" rx="14.995" ry="1.676" transform="translate(575.631 485.819)" fill="#6c63ff" opacity="0.1"/>
    <ellipse id="Ellipse_18" data-name="Ellipse 18" cx="14.995" cy="1.676" rx="14.995" ry="1.676" transform="translate(450.85 477.686)" fill="#6c63ff" opacity="0.1"/>
    <ellipse id="Ellipse_19" data-name="Ellipse 19" cx="17.734" cy="3.046" rx="17.734" ry="3.046" transform="translate(367.389 514.616)" fill="#6c63ff" opacity="0.1"/>
    <path id="Path_75" data-name="Path 75" d="M682.855,790.14s-24.694,12.758-11.936,27.785a4.773,4.773,0,0,0,4.67,3.033s-.692-1.265,1.957-2.276a12.727,12.727,0,0,0,2.668-1.415,6.267,6.267,0,0,0,2.387-3.19h0s5.048-6.757,1.135-19.261c0,0,.509-3.535.065-4.109l-3,4.115s3.1,2.081,3.457,5.14c0,0-3.261-5.133-3.914-4.566-.143.117-1.487,2.25-1.487,2.25s5.374,3.646,5.772,8.381c0,0-3.026-6.633-6.294-7.579l-1.872,3.339s5.87,3.574,6.522,8.949c0,0-3.411-6.816-6.894-8.192l-1.376,3.529s5.662,3.6,6.183,8.075c0,0-4.735-7.481-6.438-7.247,0,0-1.07,3.313-.926,4.338,0,0,4,2.674,4.07,5.3,0,0-3.692-4.663-4.259-4.357,0,0-.235,4.69.9,7.129a14.073,14.073,0,0,1-1.637-7.129,7.828,7.828,0,0,0-2.367,3.809s-1.063-2.576,2.439-4.951c0,0,.333-3.646.737-4.1,0,0-3.79,1.853-5.4,4.122,0,0,.594-3.385,5.733-5.068l1.3-3.574s-5.14,2.179-6.725,4.1c0,0,1.142-3.359,7.129-4.97l1.774-3.261a29.951,29.951,0,0,0-6.8,3.261s1.729-2.889,7.344-4.22l1.441-2.055s-3.313,1.181-4.24,1.6-1.109.215-1.109.215a12,12,0,0,1,5.942-2.7S683.083,790.362,682.855,790.14Z" transform="translate(-289.82 -303.094)" fill="#6c63ff"/>
    <path id="Path_76" data-name="Path 76" d="M685.591,289.508c-4.266-11.59-27.746-12.68-37.935-9.725-7.24,2.107-22.5,4.481-30.655,5.674l-.528-.5c1.057-.313,1.083-1.083.952-2.224a34.8,34.8,0,0,1,.065-4.513c5,1.552,9.444-2.12,9.444-2.12h0c5.87-2.609,4.292-13.775,5.414-16.828.841-2.283,1.748-15.732,2.152-22.437h.085l.046-2.25c.059-.972.085-1.539.085-1.539s.574-16.4,1.7-19.717c1.044-3.052,1.891-18.432,2.022-20.872v-.32l-.085-1.422c.059-1.037.085-2.192.078-3.4,0-5.577-.581-12.6-.652-13.736v-.594c.046-2.381-.254-14.3-10.4-18.811-3.737-1.67-8.231-3.659-12.582-5.6-1.122-9.686-3.685-19.319-3.463-29.077,0-1.468.13-2.935.274-4.4,0,.424-.046.854-.052,1.3v2.844c.385-12.2,5-24.472,4.566-36.415-.039,1.168-.124,2.342-.235,3.516a37.915,37.915,0,0,0-1.252-11.995,7.1,7.1,0,0,0-2.048-3.718,8.433,8.433,0,0,0-3.574-1.415,71.881,71.881,0,0,0-9.386-1.748,14.485,14.485,0,0,0-2.113-4.1C590.9,54.289,581.1,45.758,569.517,43.8c-5.811-.978-12.5-.163-16.45,3.992a12.34,12.34,0,0,0-1.161,1.174c-2.126,2.537-3.039,5.87-5.218,8.4-.144.17-.307.326-.463.489-4.266,3.816-10.912,4.611-15.654,8.036a18.793,18.793,0,0,0-2.342,2.042,39.7,39.7,0,0,0-5.113,6.216c-2.133,3-4.324,6.125-5,9.705-1.363,7.175,3.522,13.978,4.429,21.2,2.022,16.156-15.856,30.492-12.471,46.433a21.264,21.264,0,0,0,5.753,10.325c-6.973,6.314-12.908,12.438-12.908,12.438v.365h-1.1l.111,1.3h-.111l.607,7.077-.607,10.305v.972h.039c.2,3.777,1,17.356,1.957,20.22,1.122,3.32,1.689,19.717,1.689,19.717s1.239,23.174,2.374,26.24-.476,14.2,5.414,16.828h0a12.393,12.393,0,0,0,5.916,2.452c-.3,2.439-.111,4.207.861,4.761a2.844,2.844,0,0,0,1.37.391,14.557,14.557,0,0,0-1.063,1.859,27.632,27.632,0,0,1-6.835-1.611c-6.327-2.609-27.322-8.479-33.421-4.35s-20.774,7.873-14,24.492,9.934,17.037,9.934,17.037a24.128,24.128,0,0,1,5.42,5.446c2.035,3.059,21,10.058,25.737,10.058a46.41,46.41,0,0,1,6.033.3s-5.146,4.514-4.461,7.136-1.565,23.611-1.565,23.611,5.218,5.257,7.449-1.637l.078.1c.418.567,2.674,3.131,6.92-.1a38.808,38.808,0,0,1,5.518-3.5l20.559-2.909a58.217,58.217,0,0,1,6.438-.046c3.261.267,6.464-1.663,8.479-3.157,4.259,1.618,9.047,3.385,11.323,4.031,4.618,1.3,25.842,7,30.806,5.218a6.894,6.894,0,0,0,2.674-1.9l4.735.15-2.218.444s4.318.072,10.188.15l-.248.143,7.364-.065c10.775.1,22.881.13,24.472-.228,2.491-.554,15.438-.163,19.254,0h1.063s14.225-2.837,8.355-17.271c-4.513-11.088-18.387-14.31-24.544-15.2,1.735-.346,3.229-.613,4.22-.77,4.3-.652,12.647-4.566,13.325-5.9s7.677-5.218,9.484-7.429S689.876,301.1,685.591,289.508ZM567.763,321.943l-.7.228-.47.157-.9.887c-.717-.483-1.487-.991-2.289-1.513C564.821,321.787,566.276,321.872,567.763,321.943Zm62.165,18.38Z" transform="translate(-219.263 -43.42)" fill="url(#linear-gradient)"/>
    <path id="Path_77" data-name="Path 77" d="M686.65,322.111s9.979,26.09,15.654,23.481,4.135-13.7,5.218-16.737,2.283-26.09,2.283-26.09.548-16.306,1.631-19.606c1-3.033,1.82-18.328,1.957-20.735v-.32l-1.076-18.915-6.092-1.52L692.1,246.888l-1.957,11.173-.763,4.364-.326,1.859Z" transform="translate(-296.563 -112.36)" fill="#be6f72"/>
    <path id="Path_78" data-name="Path 78" d="M691.69,358.3s9.523,7.794,12.393,8.479,4.631,6.764,4.631,6.764" transform="translate(-298.315 -152.919)" opacity="0.1"/>
    <path id="Path_79" data-name="Path 79" d="M552.742,323.861s-9.979,26.09-15.654,23.481-4.135-13.7-5.218-16.737-2.283-26.09-2.283-26.09-.548-16.306-1.63-19.606c-1-3.033-1.82-18.328-1.957-20.735v-.32l1.083-18.915,6.092-1.52,14.128,5.218,1.957,11.173.763,4.363.326,1.859Z" transform="translate(-240.696 -112.969)" fill="#be6f72"/>
    <rect id="Rectangle_20" data-name="Rectangle 20" width="22.274" height="34.719" transform="translate(354.755 71.273)" fill="#3e373a"/>
    <rect id="Rectangle_21" data-name="Rectangle 21" width="22.274" height="34.719" transform="translate(354.755 71.273)" opacity="0.1"/>
    <path id="Path_80" data-name="Path 80" d="M558.112,405.483s-7.612,8.368-4.787,9.888,21.094,30,21.094,30,60.006,7.39,71.323-3.7,11.088-30.9,11.088-30.9-9.092,1.957-10.083.894-6.438-6.19-6.438-6.19S563.33,400.813,558.112,405.483Z" transform="translate(-249.979 -168.606)" fill="#4b4b5b"/>
    <path id="Path_81" data-name="Path 81" d="M558.112,405.483s-7.612,8.368-4.787,9.888,21.094,30,21.094,30,60.006,7.39,71.323-3.7,11.088-30.9,11.088-30.9-9.092,1.957-10.083.894-6.438-6.19-6.438-6.19S563.33,400.813,558.112,405.483Z" transform="translate(-249.979 -168.606)" opacity="0.02"/>
    <path id="Path_82" data-name="Path 82" d="M657.43,212.413l-19.567,15.654-5.916.431-2.172.156-36.48,2.674-37.83-2.766-5.629-.411-7.175-.522-15-14.349a256.919,256.919,0,0,1,19.92-19.052c3.666-3.033,7.129-5.485,9.653-6.451l.43-.15a10.736,10.736,0,0,0,4.135-2.883c7.344-7.573,14.134-26.259,14.134-26.259s32.4-16.737,28.483,5.218,14.565,16.528,14.565,16.528l6.092,2.779,2.407,1.1,6.138,2.811,13.847,6.353C658.33,198.279,657.43,212.413,657.43,212.413Z" transform="translate(-241.273 -81.31)" fill="#be6f72"/>
    <circle id="Ellipse_20" data-name="Ellipse 20" cx="29.136" cy="29.136" r="29.136" transform="translate(321.367 36.783)" opacity="0.1"/>
    <path id="Path_83" data-name="Path 83" d="M656.9,251.939H526v-.32l1.083-18.915A256.873,256.873,0,0,1,547,213.652l82.183-3.261,3.822-4.031,13.847,6.353c10.873,5,10,19.13,10,19.13S658.34,248.221,656.9,251.939Z" transform="translate(-240.696 -100.081)" opacity="0.1"/>
    <path id="Path_84" data-name="Path 84" d="M656.9,250.939H526v-.32l1.083-18.915A256.873,256.873,0,0,1,547,212.652l82.183-3.261,3.822-4.031,13.847,6.353c10.873,5,10,19.13,10,19.13S658.34,247.221,656.9,250.939Z" transform="translate(-240.696 -99.733)" fill="#e7c7ca"/>
    <path id="Path_85" data-name="Path 85" d="M589.443,190.882s20.65,26.312,48.155-.541,3.046,59.9,3.046,59.9L581.29,257.28Z" transform="translate(-259.923 -92.716)" opacity="0.1"/>
    <path id="Path_86" data-name="Path 86" d="M589.443,192.882s20.65,26.311,48.155-.541,3.046,59.9,3.046,59.9L581.29,259.28Z" transform="translate(-259.923 -93.412)" fill="#e7c7ca"/>
    <path id="Path_87" data-name="Path 87" d="M635.75,202.426l2.185,33.323,2.342,11.088,1.787,8.479s4.566,65.224,3.261,68.486.652,5.87.926,7.605-.274,6.092-.059,8.049,0,2.824-5,2.126-11.962-1.911-11.962-1.911-17.61,1.3-23.7-.868-17.611-2.178-17.611-2.178-17.4.437-23.044-.215-8.7,6.959-12.393,4.781,4.344-23.259,6.953-29.351-3.477-21.524-3.477-21.524l7.827-43.42,1.742-9.842V206.111l.43-.15a10.736,10.736,0,0,0,4.135-2.883l1.957,31.138L633.37,236.4V201.35" transform="translate(-249.577 -98.339)" opacity="0.1"/>
    <path id="Path_88" data-name="Path 88" d="M635.75,200.426l2.185,33.323,2.342,11.088,1.787,8.479s4.566,65.224,3.261,68.486.652,5.87.926,7.605-.274,6.092-.059,8.049,0,2.824-5,2.126-11.962-1.911-11.962-1.911-17.61,1.3-23.7-.868-17.611-2.178-17.611-2.178-17.4.437-23.044-.215-8.7,6.96-12.393,4.781,4.344-23.259,6.953-29.351-3.477-21.524-3.477-21.524l7.827-43.42,1.742-9.842V204.111l.43-.15a10.735,10.735,0,0,0,4.135-2.883l1.957,31.138L633.37,234.4V199.35" transform="translate(-249.577 -97.643)" fill="#e7c7ca"/>
    <path id="Path_89" data-name="Path 89" d="M637.937,77.993A7.188,7.188,0,0,0,635.98,74.3a8.01,8.01,0,0,0-3.444-1.409,68.046,68.046,0,0,0-9.053-1.735,14.488,14.488,0,0,0-1.957-4.063c-6.392-9.027-15.849-17.539-26.977-19.463-5.825-1.011-12.575-.1-16.306,4.487-2.048,2.524-2.928,5.87-5,8.349-3.985,4.814-11.179,5.407-16.2,9.131-2.681,1.957-4.624,4.794-6.523,7.546-2.055,2.981-4.168,6.085-4.82,9.647-1.3,7.116,3.4,13.9,4.266,21.08,1.957,16.065-15.263,30.316-12.008,46.166,1.9,9.242,10.436,15.752,19.267,19.052,3.111,1.168,6.666,2.329,8.12,5.316.652,1.3.763,2.811,1.376,4.129,2.061,4.4,8.838,4.566,12.477,1.363s4.787-8.381,5.218-13.214c1.748-21.107-6.7-41.959-5.72-63.118.293-6.4,2.094-13.658,7.827-16.554,7.716-3.913,17,2.609,25.49,1.363a50.569,50.569,0,0,1,2.439,30.858c-1.35,5.629-3.685,11.088-3.855,16.893-.254,8.838,4.514,16.913,8.636,24.727a13.159,13.159,0,0,1,1.741,4.768,11.492,11.492,0,0,1-.933,4.99c-2.329,6.268-6.346,12.086-6.8,18.759a3.033,3.033,0,0,0,.489,2.231,2.805,2.805,0,0,0,1.683.757c7.044,1.207,13.136-5.035,16.573-11.3a52.989,52.989,0,0,0,6.535-22.515c.711-13.28-4.05-26.344-3.757-39.637C635.106,107.788,641.935,92.571,637.937,77.993Z" transform="translate(-244.713 -44.753)" opacity="0.1"/>
    <path id="Path_90" data-name="Path 90" d="M638.937,76.993A7.188,7.188,0,0,0,636.98,73.3a8.01,8.01,0,0,0-3.444-1.409,68.039,68.039,0,0,0-9.053-1.735,14.5,14.5,0,0,0-1.957-4.063c-6.392-9.027-15.849-17.539-26.977-19.463-5.824-1.011-12.575-.1-16.306,4.487-2.048,2.524-2.928,5.87-5,8.349-3.985,4.814-11.18,5.407-16.2,9.131-2.681,1.957-4.624,4.794-6.522,7.546-2.055,2.981-4.168,6.085-4.82,9.647-1.3,7.116,3.4,13.9,4.266,21.081,1.957,16.065-15.262,30.316-12.008,46.166,1.9,9.242,10.436,15.752,19.267,19.052,3.111,1.168,6.666,2.329,8.121,5.316.652,1.3.763,2.811,1.376,4.129,2.061,4.4,8.838,4.566,12.478,1.363s4.787-8.381,5.218-13.214c1.748-21.107-6.705-41.959-5.72-63.118.294-6.4,2.094-13.658,7.827-16.554,7.716-3.913,17,2.609,25.49,1.363a50.567,50.567,0,0,1,2.439,30.858c-1.35,5.629-3.685,11.088-3.855,16.893-.254,8.838,4.514,16.913,8.636,24.727a13.157,13.157,0,0,1,1.741,4.768,11.493,11.493,0,0,1-.933,4.99c-2.329,6.268-6.346,12.086-6.8,18.758a3.035,3.035,0,0,0,.489,2.231,2.806,2.806,0,0,0,1.683.757c7.044,1.207,13.136-5.035,16.573-11.3a52.991,52.991,0,0,0,6.536-22.515c.711-13.28-4.051-26.344-3.757-39.637C636.106,106.788,642.935,91.571,638.937,76.993Z" transform="translate(-245.06 -44.405)" fill="#3e373a"/>
    <path id="Path_91" data-name="Path 91" d="M581.79,482.941l25.874.828-3.711-19.189-19.821,1.885Z" transform="translate(-202.321 -161.558)" fill="#c3c7d9"/>
    <path id="Path_92" data-name="Path 92" d="M729.188,444.864c-1.741,2.172-8.479,6.085-9.131,7.39s-8.694,5.218-12.83,5.87-17.173,3.483-19.567,5c-1.716,1.1-15.484,4.566-24.531,6.49a69.635,69.635,0,0,1-7.429,1.337c-3.913.215-46.74-14.349-46.74-14.349l8.258-8.479.457-.156c2.335-.789,13.123-4.435,19.111-6.17,6.744-1.957,14.571-10,14.571-10s11.519-3.914,13.045-4.35-3.914-15.217-3.914-15.217,25-3.47,34.784-6.412,32.4-1.852,36.526,9.673S730.956,442.692,729.188,444.864Z" transform="translate(-269.546 -168.962)" fill="#4b4b5b"/>
    <path id="Path_93" data-name="Path 93" d="M589.179,510.464s-5,5.218-10,4.788-22.5,1.3-22.5,1.3a35.062,35.062,0,0,0-8.812,5.107c-4.09,3.222-6.261.652-6.666.1l-.072-.1c-2.179,6.855-7.175,1.631-7.175,1.631s2.172-20.872,1.507-23.481,4.3-7.09,4.3-7.09l5.87-1.494,14.871-3.809,21.309,7.39Z" transform="translate(-243.464 -197.821)" fill="#e7c7ca"/>
    <path id="Path_94" data-name="Path 94" d="M545.609,493.26l-4.4,30.538-.072-.1c-2.179,6.855-7.175,1.631-7.175,1.631s2.172-20.872,1.507-23.481,4.3-7.09,4.3-7.09Z" transform="translate(-243.464 -199.852)" opacity="0.1"/>
    <path id="Path_95" data-name="Path 95" d="M599,360.08s11.518,3.913,21.524,0" transform="translate(-266.082 -153.538)" opacity="0.1"/>
    <path id="Path_96" data-name="Path 96" d="M659.29,371.42s4.781,2.387,8.479,0" transform="translate(-287.048 -157.482)" opacity="0.1"/>
    <path id="Path_97" data-name="Path 97" d="M659.29,379.516s8.042,1.076,9.568-1.1" transform="translate(-287.048 -159.916)" opacity="0.1"/>
    <path id="Path_98" data-name="Path 98" d="M655.29,396.316s15.106-1.957,18.856-4.566" transform="translate(-285.657 -164.552)" opacity="0.1"/>
    <path id="Path_99" data-name="Path 99" d="M584.62,391.75s8.479,4.781,14.786,4.566" transform="translate(-261.081 -164.552)" opacity="0.1"/>
    <path id="Path_100" data-name="Path 100" d="M663.119,492.828a69.641,69.641,0,0,1-7.429,1.337c-3.914.215-46.74-14.349-46.74-14.349l8.258-8.479.456-.156c1.3.92,2.374,1.709,3.137,2.309,3.594,2.831,7.064-.868,8.368-.868s12.608,9.347,12.608,9.347,10.436,2.394,12.177,4.566,7.827,1.741,8.91,3.261A5.819,5.819,0,0,1,663.119,492.828Z" transform="translate(-269.542 -192.174)" opacity="0.1"/>
    <path id="Path_101" data-name="Path 101" d="M534.688,413.635s-10.553.607-16.639-1.957-26.3-8.479-32.175-4.324-20,7.827-13.482,24.355,9.568,16.958,9.568,16.958a23.548,23.548,0,0,1,5.218,5.414c1.957,3.046,20.22,10,24.785,10s12.608,0,23.911,7.827,21.524,8.7,21.524,8.7,14.349,5.87,18.817,7.175,24.883,6.953,29.67,5.218,7.827-12.614,7.827-12.614,2.172-9.784,1.082-11.3-7.174-1.089-8.909-3.261-12.177-4.566-12.177-4.566-11.277-9.353-12.582-9.353-4.774,3.692-8.368.868a190.92,190.92,0,0,0-22.509-14.349C541.994,434.069,534.688,413.635,534.688,413.635Z" transform="translate(-221.468 -169.478)" fill="#4b4b5b"/>
    <path id="Path_102" data-name="Path 102" d="M536.27,427.285a12.457,12.457,0,0,1,10.69,2.824c5.218,4.35,22.776,13.084,22.776,13.084" transform="translate(-244.267 -176.821)" opacity="0.1"/>
    <path id="Path_103" data-name="Path 103" d="M721.569,427s-23.266,3.522-27.61,8.3" transform="translate(-299.105 -176.81)" opacity="0.1"/>
    <path id="Path_104" data-name="Path 104" d="M745.411,520.032h-1.024c-3.679-.13-16.143-.522-18.543,0-2.824.652-40.224,0-40.224,0l7.312-1.52s-2.713-9.51-.991-10.3c0,0-9.784-6.444-2.407-10.795a22.885,22.885,0,0,1,15.328-2.518l18.517-6.275,3.555-1.207s20.872,1.089,26.52,15.439S745.411,520.032,745.411,520.032Z" transform="translate(-296.205 -197.821)" fill="#e7c7ca"/>
    <path id="Path_105" data-name="Path 105" d="M765.543,520.05h-1.024c6.072-5.009,19.809-20.259-21.009-31.373l3.555-1.207s20.872,1.089,26.52,15.439S765.543,520.05,765.543,520.05Z" transform="translate(-316.336 -197.839)" opacity="0.1"/>
    <circle id="Ellipse_21" data-name="Ellipse 21" cx="1.141" cy="1.141" r="1.141" transform="translate(409.694 303.022)" fill="#4b4b5b"/>
    <circle id="Ellipse_22" data-name="Ellipse 22" cx="1.141" cy="1.141" r="1.141" transform="translate(403.06 304.907)" fill="#4b4b5b"/>
    <g id="Group_7" data-name="Group 7" transform="translate(293.668 41.022)" opacity="0.1">
      <path id="Path_106" data-name="Path 106" d="M638.94,130.252a50.612,50.612,0,0,0-3.744-20.963c-8.479,1.265-17.767-5.277-25.49-1.363-5.714,2.9-7.507,10.155-7.827,16.554-.078,1.689-.091,3.379-.059,5.068,0-.6,0-1.207.059-1.807.3-6.4,2.094-13.658,7.827-16.554,7.723-3.913,17,2.609,25.49,1.363A50.476,50.476,0,0,1,638.94,130.252Z" transform="translate(-560.725 -106.433)"/>
      <path id="Path_107" data-name="Path 107" d="M555.567,129.757a21.768,21.768,0,0,0-.085-4.266c-.691-5.74-3.829-11.225-4.4-16.821-.73,6.751,3.568,13.234,4.4,20.083A4.057,4.057,0,0,1,555.567,129.757Z" transform="translate(-543.058 -107.131)"/>
      <path id="Path_108" data-name="Path 108" d="M585.7,220.512c-.4,4.84-1.546,10.012-5.218,13.221S570.044,236.766,568,232.37c-.652-1.3-.75-2.824-1.383-4.129-1.448-2.987-5.009-4.148-8.12-5.316-8.838-3.307-17.363-9.784-19.261-19.052a19.975,19.975,0,0,1-.346-2.544,20.558,20.558,0,0,0,.345,5.805c1.9,9.242,10.436,15.745,19.261,19.052,3.111,1.167,6.672,2.328,8.12,5.316.652,1.3.763,2.811,1.383,4.129,2.055,4.4,8.831,4.566,12.478,1.363s4.781-8.381,5.218-13.221a74.529,74.529,0,0,0,.2-7.657C585.9,217.6,585.815,219.058,585.7,220.512Z" transform="translate(-538.823 -139.354)"/>
      <path id="Path_109" data-name="Path 109" d="M687.93,139.692v2.824c.365-12.132,4.814-24.329,4.377-36.206C691.967,117.294,688.178,128.525,687.93,139.692Z" transform="translate(-590.676 -106.31)"/>
      <path id="Path_110" data-name="Path 110" d="M661.015,216.945a8.409,8.409,0,0,0,.15-2.355,13.044,13.044,0,0,0-1.741-4.768c-3.77-7.175-8.068-14.519-8.577-22.483,0,.339-.046.652-.052,1.017-.261,8.831,4.507,16.913,8.629,24.727A15.658,15.658,0,0,1,661.015,216.945Z" transform="translate(-577.758 -134.489)"/>
      <path id="Path_111" data-name="Path 111" d="M680.149,217.564a53.076,53.076,0,0,1-6.581,22.515c-3.444,6.268-9.529,12.51-16.58,11.3a2.771,2.771,0,0,1-1.683-.763,1.634,1.634,0,0,1-.307-.509c-.078.509-.143,1.024-.182,1.546a3.007,3.007,0,0,0,.489,2.224,2.771,2.771,0,0,0,1.683.763c7.051,1.207,13.136-5.035,16.58-11.3a53.076,53.076,0,0,0,6.581-22.515c.078-1.526.085-3.046.039-4.566C680.175,216.7,680.175,217.128,680.149,217.564Z" transform="translate(-579.145 -144.546)"/>
    </g>
    <path id="Path_112" data-name="Path 112" d="M695.31,514.821s16.508,6.927,27.394-8.4" transform="translate(-299.574 -204.429)" fill="none" stroke="#000" stroke-miterlimit="10" stroke-width="1" opacity="0.1"/>
    <path id="Path_113" data-name="Path 113" d="M700.29,535.736s13.482-8.766,30.655-.287" transform="translate(-301.306 -213.239)" fill="none" stroke="#000" stroke-miterlimit="10" stroke-width="1" opacity="0.1"/>
    <path id="Path_114" data-name="Path 114" d="M561.93,531.241s5.661-12.771,20.78-3.033" transform="translate(-253.191 -210.733)" fill="none" stroke="#000" stroke-miterlimit="10" stroke-width="1" opacity="0.1"/>
    <path id="Path_115" data-name="Path 115" d="M533.79,238.446l11.545-10.436s44.763-2.935,46.616,12.282c0,0,15.869-18.041,49.244-14.023l14.121,11.245-39.03,17.128L578.358,267.8l-27.935-12.5Z" transform="translate(-243.405 -106.801)" opacity="0.1"/>
    <path id="Path_116" data-name="Path 116" d="M533.79,239.446l11.545-10.436s44.763-2.935,46.616,12.282c0,0,15.869-18.041,49.244-14.023l14.121,11.245-39.03,17.128L578.358,268.8l-27.935-12.5Z" transform="translate(-243.405 -107.149)" fill="#d5d6db"/>
    <path id="Path_117" data-name="Path 117" d="M437.38,204.83l5.107,61.1,54.136,2.72-2.348-60.835-.046-1.024Z" transform="translate(-152.102 -71.228)" opacity="0.1"/>
    <path id="Path_118" data-name="Path 118" d="M437.38,202.83l5.107,61.1,54.136,2.72-2.348-60.835-.046-1.024Z" transform="translate(-152.102 -70.533)" fill="#6c63ff"/>
    <path id="Path_119" data-name="Path 119" d="M605.555,202.83,549.71,211.2v61.37l54.573-7.886Z" transform="translate(-191.165 -70.533)" opacity="0.1"/>
    <path id="Path_120" data-name="Path 120" d="M605.555,200.83,549.71,209.2v61.37l54.573-7.886Z" transform="translate(-191.165 -69.837)" fill="#6c63ff"/>
    <path id="Path_121" data-name="Path 121" d="M599.056,223.79l-30.166,3.353.659,10.279,29.488-3.222Z" transform="translate(-197.835 -77.822)" fill="#fff" opacity="0.3"/>
    <path id="Path_122" data-name="Path 122" d="M537.591,361.07l3.072,8.264s4.566,3.913,9.562,1.957,9.353-2.929,11.525-4.833,5.218-11.473,5.218-11.473,3.046-10.436,6.086-13.045,11.088-38.554,0-35.038-19.567,36.128-19.567,36.128a7.733,7.733,0,0,1-4.781,2.609c-2.824.222-8.479-.437-9.568,1.957S534.33,356.289,537.591,361.07Z" transform="translate(-244.271 -134.961)" fill="#be6f72"/>
    <path id="Path_123" data-name="Path 123" d="M629.558,256.9a18.785,18.785,0,0,1-16.378-4.083l2.355,60.828a16.6,16.6,0,0,0,14.023,4.631Z" transform="translate(-271.013 -116.238)" opacity="0.1"/>
    <path id="Path_124" data-name="Path 124" d="M629.558,254.9a18.785,18.785,0,0,1-16.378-4.083l2.355,60.828a16.6,16.6,0,0,0,14.023,4.631Z" transform="translate(-271.013 -115.542)" fill="#6c63ff"/>
    <path id="Path_125" data-name="Path 125" d="M629.558,254.9a18.785,18.785,0,0,1-16.378-4.083l2.355,60.828a16.6,16.6,0,0,0,14.023,4.631Z" transform="translate(-271.013 -115.542)" opacity="0.1"/>
    <path id="Path_126" data-name="Path 126" d="M640.29,243.338s22.718-6.946,28.64-5.968" transform="translate(-280.441 -110.832)" opacity="0.1"/>
    <path id="Path_127" data-name="Path 127" d="M587.628,239.786s-22.02-5.218-25.7-3.737" transform="translate(-253.191 -110.313)" opacity="0.1"/>
    <path id="Path_128" data-name="Path 128" d="M662.25,245.961s15.191-5.57,20.683-2.922" transform="translate(-288.078 -112.588)" opacity="0.1"/>
    <path id="Path_129" data-name="Path 129" d="M650.52,456.037a49.934,49.934,0,0,1,7.488-4.651A122.166,122.166,0,0,0,669.1,444.61" transform="translate(-283.999 -182.934)" opacity="0.1"/>
    <path id="Path_130" data-name="Path 130" d="M552.854,360.08s-9.529,7.794-12.392,8.479-4.631,6.764-4.631,6.764" transform="translate(-244.114 -153.538)" opacity="0.1"/>
    <path id="Path_131" data-name="Path 131" d="M693.4,359.3l-3.039,8.284s-4.566,3.914-9.569,1.957-9.347-2.929-11.525-4.833-5.218-11.473-5.218-11.473-3.039-10.436-6.086-13.045-11.088-38.554,0-35.039,19.567,36.128,19.567,36.128a7.734,7.734,0,0,0,4.781,2.609c2.824.222,8.479-.437,9.569,1.957S696.661,354.539,693.4,359.3Z" transform="translate(-284.613 -134.352)" fill="#be6f72"/>
    <path id="Path_132" data-name="Path 132" d="M707.15,364.94s6.229,4,6.2,8.792" transform="translate(-303.692 -155.228)" opacity="0.1"/>
    <circle id="Ellipse_23" data-name="Ellipse 23" cx="29.136" cy="29.136" r="29.136" transform="translate(321.471 35.354)" fill="#be6f72"/>
    <path id="Path_133" data-name="Path 133" d="M590.378,113.922c3.535-.554,6.633-2.609,10.012-3.79,7.56-2.655,15.921-.835,23.572,1.559,2.935.92,5.916,1.957,8.994,1.957s6.346-1.259,7.918-3.913c1.448-2.439,1.167-5.609-.052-8.173a23.021,23.021,0,0,0-5.322-6.568c-6.783-6.405-15.2-12.393-24.5-11.74a33.726,33.726,0,0,0-10.769,3.085,118.722,118.722,0,0,0-12.64,6.366c-3.137,1.82-8.949,4.253-10.756,7.579C572.722,107.778,583.986,114.927,590.378,113.922Z" transform="translate(-258.066 -57.253)" fill="#3e373a"/>
    <path id="Path_134" data-name="Path 134" d="M640.873,116.926c-1.572,2.655-4.84,3.913-7.918,3.913s-6.059-1-9-1.918c-7.651-2.394-16.006-4.22-23.572-1.559-3.372,1.181-6.477,3.261-10.012,3.783-5.153.809-13.449-3.679-14.349-9.386C575.01,118.354,584.63,124,590.37,123.1c3.535-.554,6.64-2.609,10.012-3.783,7.566-2.661,15.921-.835,23.572,1.559,2.942.92,5.916,1.957,9,1.918s6.346-1.252,7.918-3.913a7.637,7.637,0,0,0,.913-4.768,7.031,7.031,0,0,1-.913,2.811Z" transform="translate(-258.065 -67.183)" opacity="0.1"/>
    <path id="Path_135" data-name="Path 135" d="M1032.325,661.63s3.868,5.055-1.787,12.693-10.312,14.082-8.433,18.844c0,0,8.531-14.18,15.472-14.382S1039.95,670.155,1032.325,661.63Z" transform="translate(-413.072 -258.404)" fill="#6c63ff"/>
    <path id="Path_136" data-name="Path 136" d="M1032.443,661.63a6.247,6.247,0,0,1,.789,1.585c6.77,7.958,10.384,15.386,3.868,15.569-6.066.176-13.338,11.023-15.08,13.756a6.482,6.482,0,0,0,.2.652s8.532-14.18,15.471-14.382S1040.067,670.155,1032.443,661.63Z" transform="translate(-413.19 -258.404)" opacity="0.1"/>
    <path id="Path_137" data-name="Path 137" d="M1048.523,670.9c0,1.781-.2,3.222-.443,3.222s-.45-1.441-.45-3.222.248-.939.5-.939S1048.523,669.123,1048.523,670.9Z" transform="translate(-422.096 -261.233)" fill="#ffd037"/>
    <path id="Path_138" data-name="Path 138" d="M1051.165,674.1c-1.559.848-2.922,1.363-3.039,1.148s1.05-1.083,2.609-1.957.946-.235,1.063,0S1052.731,673.247,1051.165,674.1Z" transform="translate(-422.266 -262.305)" fill="#ffd037"/>
    <path id="Path_139" data-name="Path 139" d="M1002.035,661.63s-3.868,5.055,1.787,12.693,10.312,14.082,8.427,18.844c0,0-8.525-14.18-15.471-14.382S994.43,670.155,1002.035,661.63Z" transform="translate(-403.223 -258.404)" fill="#6c63ff"/>
    <path id="Path_140" data-name="Path 140" d="M1002.035,661.63a6.27,6.27,0,0,0-.789,1.585c-6.77,7.958-10.384,15.386-3.868,15.569,6.059.176,13.338,11.023,15.08,13.756a5.1,5.1,0,0,1-.209.652s-8.525-14.18-15.471-14.382S994.43,670.155,1002.035,661.63Z" transform="translate(-403.223 -258.404)" opacity="0.1"/>
    <path id="Path_141" data-name="Path 141" d="M995.64,670.9c0,1.781.2,3.222.443,3.222s.45-1.441.45-3.222-.254-.939-.5-.939S995.64,669.123,995.64,670.9Z" transform="translate(-404.016 -261.233)" fill="#ffd037"/>
    <path id="Path_142" data-name="Path 142" d="M991.354,674.1c1.559.848,2.922,1.363,3.039,1.148s-1.05-1.083-2.609-1.957-.946-.235-1.063,0S989.789,673.247,991.354,674.1Z" transform="translate(-402.195 -262.305)" fill="#ffd037"/>
    <ellipse id="Ellipse_24" data-name="Ellipse 24" cx="40.439" cy="6.203" rx="40.439" ry="6.203" transform="translate(568.593 461.047)" fill="#6c63ff" opacity="0.1"/>
    <path id="Path_143" data-name="Path 143" d="M1032.038,698.271l-.2,1.578-.274,2.231-.111.933-.274,2.231-.117.933-.268,2.224-3.1,25.373c-.274,2.263-3.972,4.031-8.44,4.031h-16.078c-4.468,0-8.159-1.768-8.44-4.031l-3.1-25.373-.274-2.224-.111-.933-.274-2.231-.118-.933-.267-2.231-.2-1.578c-.15-1.3,1.846-2.361,4.376-2.361h32.886C1030.193,695.91,1032.195,696.986,1032.038,698.271Z" transform="translate(-402.193 -270.325)" fill="#65617d"/>
    <path id="Path_144" data-name="Path 144" d="M943.371,658.53l-.267,2.231H902.4l-.274-2.231Z" transform="translate(-313.722 -229.006)" fill="#9d9cb5"/>
    <path id="Path_145" data-name="Path 145" d="M943.192,663.38l-.267,2.231h-39.93l-.274-2.231Z" transform="translate(-313.927 -230.692)" fill="#9d9cb5"/>
    <path id="Path_146" data-name="Path 146" d="M943.015,668.23l-.274,2.231H903.587l-.267-2.231Z" transform="translate(-314.136 -232.379)" fill="#9d9cb5"/>
  </g>
</svg>
