<svg xmlns="http://www.w3.org/2000/svg" width="467.515" height="250" viewBox="0 0 467.515 250">
  <g id="undraw_Books_l33t" transform="translate(0 0)">
    <path id="Path_347" data-name="Path 347" d="M165.2,351.012a82.057,82.057,0,0,1-82.055,82.055V268.957A82.057,82.057,0,0,1,165.2,351.012Z" transform="translate(-82.654 -218.234)" fill="#3f3d56"/>
    <path id="Path_348" data-name="Path 348" d="M924.964,351.012a82.057,82.057,0,0,0,82.055,82.055V268.957A82.057,82.057,0,0,0,924.964,351.012Z" transform="translate(-539.993 -218.234)" fill="#3f3d56"/>
    <path id="Path_349" data-name="Path 349" d="M261.391,230.206a5.861,5.861,0,1,1,5.861-5.861,5.861,5.861,0,0,1-5.861,5.861Zm0-10.745a4.884,4.884,0,1,0,4.884,4.884A4.884,4.884,0,0,0,261.391,219.46Z" transform="translate(-181.328 -195.62)" fill="#3f3d56"/>
    <path id="Path_350" data-name="Path 350" d="M866.082,588.553H856.44v-9.642h9.642Zm-8.9-.742h8.159v-8.159h-8.159Z" transform="translate(-506.552 -397.181)" fill="#3f3d56"/>
    <path id="Path_351" data-name="Path 351" d="M332.931,562.75l-6.577-7.051,7.051-6.577,6.577,7.051Zm-5.528-7.015,5.565,5.966,5.966-5.565-5.565-5.966Z" transform="translate(-215.902 -380.395)" fill="#3f3d56"/>
    <path id="Path_352" data-name="Path 352" d="M82,165.014v250H549.515v-250Zm466.486,249H83.031v-248H548.483Z" transform="translate(-82 -165.014)" fill="#3f3d56" opacity="0"/>
    <path id="Path_353" data-name="Path 353" d="M583.072,634.71q-15.842-2.48-30.464-4.219l3.754-7.507c-1.3-.434-6.949,3.909-6.949,3.909l4.777-21.716c-6.515.869-9.555,23.019-9.555,23.019l-7.383-7.383,3.634,8.359a673.12,673.12,0,0,0-77.206-3.888l3.213-6.426c-1.3-.434-6.949,3.909-6.949,3.909l4.777-21.716c-6.515.869-9.555,23.018-9.555,23.018l-7.383-7.383,3.849,8.854a433.35,433.35,0,0,0-44.31,3.568c3.206-9.987,14.4-19.588,14.4-19.588-8.608,2.678-13.087,7.041-15.4,11.086a174.4,174.4,0,0,1,9.324-60.38s-17.373,39.088-14.767,65.147l.331,4.629c-15.114,2.358-22.7,4.709-22.7,4.709Z" transform="translate(-238.685 -384.954)" fill="#3f3d56"/>
    <circle id="Ellipse_46" data-name="Ellipse 46" cx="67.891" cy="67.891" r="67.891" transform="translate(168.833 58.409)" fill="#6c63ff" opacity="0.3"/>
    <path id="Path_354" data-name="Path 354" d="M398.714,85.873l-45.2,54.846,66.9,78.955,44.6-52.436Z" transform="translate(-191.168 -47.057)" fill="#6c63ff"/>
    <path id="Path_355" data-name="Path 355" d="M398.714,85.873l-45.2,54.846,66.9,78.955,44.6-52.436Z" transform="translate(-191.168 -47.057)" opacity="0.1"/>
    <path id="Path_356" data-name="Path 356" d="M439.739,317.115h0a22.72,22.72,0,0,1,3.686-4.921l41.518-42.09s14.465-2.411,17.479,4.822l-53.039,43.4Z" transform="translate(-276.907 -223.506)" fill="#f2f2f2"/>
    <path id="Path_357" data-name="Path 357" d="M434.8,314.307l61.477,94.023s6.027,4.219,12.054,1.808l62.983-42.491-66.9-101.256L444.147,313.4Z" transform="translate(-271.877 -220.301)" fill="#6c63ff"/>
    <rect id="Rectangle_32" data-name="Rectangle 32" width="47.504" height="0.977" transform="matrix(0.812, -0.584, 0.584, 0.812, 184.968, 87.434)" fill="#3f3d56"/>
    <rect id="Rectangle_33" data-name="Rectangle 33" width="0.977" height="91.773" transform="matrix(0.834, -0.552, 0.552, 0.834, 183.893, 100.277)" fill="#3f3d56"/>
    <rect id="Rectangle_34" data-name="Rectangle 34" width="50.871" height="0.977" transform="translate(243.867 179.227) rotate(-36.344)" fill="#3f3d56"/>
    <rect id="Rectangle_35" data-name="Rectangle 35" width="0.976" height="91.79" transform="translate(233.276 62.12) rotate(-34.838)" fill="#3f3d56"/>
    <rect id="Rectangle_36" data-name="Rectangle 36" width="64.734" height="0.602" transform="translate(166.093 89.733) rotate(-42.545)" fill="#3f3d56"/>
    <rect id="Rectangle_37" data-name="Rectangle 37" width="66.489" height="0.603" transform="translate(168.08 90.354) rotate(-41.439)" fill="#3f3d56"/>
    <rect id="Rectangle_38" data-name="Rectangle 38" width="67.362" height="0.603" transform="matrix(0.768, -0.64, 0.64, 0.768, 169.422, 90.379)" fill="#3f3d56"/>
    <path id="Path_358" data-name="Path 358" d="M1035.2,454.633a29.494,29.494,0,0,1-8.349-4.645l1.5,4.156H1001.5v.977h26.855l-1.5,4.157A29.482,29.482,0,0,1,1035.2,454.633Z" transform="translate(-583.799 -324.87)" fill="#fff"/>
    <path id="Path_359" data-name="Path 359" d="M154.537,454.144H127.681l1.5-4.157a29.521,29.521,0,0,1-8.349,4.646,29.5,29.5,0,0,1,8.349,4.645l-1.5-4.156h26.855Z" transform="translate(-104.229 -324.868)" fill="#fff"/>
  </g>
</svg>
