<svg xmlns="http://www.w3.org/2000/svg" width="648.096" height="469.77" viewBox="0 0 648.096 469.77">
  <g id="undraw_education_f8ru" transform="translate(0 0)">
    <path id="Path_294" data-name="Path 294" d="M651.455,584.643V697.886H367.74c-32.326,0-58.626-25.4-58.626-56.621s26.3-56.621,58.626-56.621Z" transform="translate(-238.456 -232.471)" fill="#f2f2f2"/>
    <path id="Path_295" data-name="Path 295" d="M657.521,696.628a4.357,4.357,0,0,1-4.355,4.356H361.784a59.67,59.67,0,0,1,0-119.34H653.166a4.355,4.355,0,1,1,0,8.711H361.784a50.959,50.959,0,1,0,0,101.918H653.166A4.357,4.357,0,0,1,657.521,696.628Z" transform="translate(-237.554 -232.084)" fill="#59ef4d"/>
    <path id="Path_296" data-name="Path 296" d="M656.869,614.385H351.985a.871.871,0,1,1,0-1.742H656.869a.871.871,0,1,1,0,1.742Z" transform="translate(-243.87 -236.08)" fill="#ccc"/>
    <path id="Path_297" data-name="Path 297" d="M656.869,638.385H351.985a.871.871,0,1,1,0-1.742H656.869a.871.871,0,0,1,0,1.742Z" transform="translate(-243.87 -239.174)" fill="#ccc"/>
    <path id="Path_298" data-name="Path 298" d="M656.869,662.385H351.985a.871.871,0,1,1,0-1.742H656.869a.871.871,0,0,1,0,1.742Z" transform="translate(-243.87 -242.268)" fill="#ccc"/>
    <path id="Path_299" data-name="Path 299" d="M656.869,686.385H351.985a.871.871,0,1,1,0-1.742H656.869a.871.871,0,0,1,0,1.742Z" transform="translate(-243.87 -245.361)" fill="#ccc"/>
    <path id="Path_300" data-name="Path 300" d="M907.327,580.8l-71.051,88.179L615.353,490.975c-25.171-20.282-29.714-56.562-10.125-80.873s56-27.589,81.176-7.307Z" transform="translate(-275.057 -207.315)" fill="#f2f2f2"/>
    <path id="Path_301" data-name="Path 301" d="M841.352,671.922a4.357,4.357,0,0,1-6.124.659L608.335,489.761a59.67,59.67,0,1,1,74.877-92.928L910.1,579.652a4.356,4.356,0,0,1-5.465,6.783L677.746,403.617A50.959,50.959,0,1,0,613.8,482.979L840.693,665.8a4.357,4.357,0,0,1,.66,6.124Z" transform="translate(-274.16 -206.559)" fill="#ccc"/>
    <path id="Path_302" data-name="Path 302" d="M899.83,603.938,662.423,412.648a.871.871,0,1,1,1.093-1.357L900.923,602.582a.871.871,0,1,1-1.093,1.357Z" transform="translate(-283.957 -210.1)" fill="#ccc"/>
    <path id="Path_303" data-name="Path 303" d="M884.772,622.627,647.365,431.336a.871.871,0,0,1,1.093-1.357L885.865,621.27a.871.871,0,1,1-1.093,1.357Z" transform="translate(-282.016 -212.509)" fill="#ccc"/>
    <path id="Path_304" data-name="Path 304" d="M869.714,641.315,632.307,450.025a.871.871,0,0,1,1.093-1.357L870.807,639.959a.871.871,0,1,1-1.093,1.357Z" transform="translate(-280.075 -214.918)" fill="#ccc"/>
    <path id="Path_305" data-name="Path 305" d="M854.656,660,617.249,468.713a.871.871,0,0,1,1.093-1.357L855.748,658.647A.871.871,0,0,1,854.655,660Z" transform="translate(-278.134 -217.327)" fill="#ccc"/>
    <path id="Path_306" data-name="Path 306" d="M875.225,719.385H228.871a.871.871,0,1,1,0-1.742H875.225a.871.871,0,0,1,0,1.742Z" transform="translate(-228 -249.615)" fill="#ccc"/>
    <path id="Path_307" data-name="Path 307" d="M335.907,384.938h-9.958l-4.736-38.412,14.7,0Z" transform="translate(-41.405 -44.668)" fill="#ffb8b8"/>
    <path id="Path_308" data-name="Path 308" d="M316.693,387.355H335.9v12.092H304.6a12.092,12.092,0,0,1,12.093-12.092Z" transform="translate(-39.264 -49.931)" fill="#2f2e41"/>
    <path id="Path_309" data-name="Path 309" d="M219.112,384.938h-9.958l-4.736-38.412,14.7,0Z" transform="translate(-26.35 -44.668)" fill="#ffb8b8"/>
    <path id="Path_310" data-name="Path 310" d="M199.9,387.355H219.1v12.092h-31.3A12.092,12.092,0,0,1,199.9,387.355Z" transform="translate(-24.209 -49.931)" fill="#2f2e41"/>
    <path id="Path_311" data-name="Path 311" d="M487.471,239.088v-4.356a28.093,28.093,0,0,1,28.093-28.093h0a28.093,28.093,0,0,1,28.093,28.093v4.356A20.253,20.253,0,0,1,523.4,259.341h-15.68a20.253,20.253,0,0,1-20.253-20.253Z" transform="translate(-261.447 -183.745)" fill="#2f2e41"/>
    <circle id="Ellipse_42" data-name="Ellipse 42" cx="21.395" cy="21.395" r="21.395" transform="translate(232.722 34.305)" fill="#ffb8b8"/>
    <path id="Path_312" data-name="Path 312" d="M634.488,376.475" transform="translate(-280.398 -205.637)" fill="#ffb8b8"/>
    <path id="Path_313" data-name="Path 313" d="M385.738,328.383a8.168,8.168,0,0,1,12.439,1.461l18.341-3.469,4.827,10.631-25.969,4.536a8.213,8.213,0,0,1-9.637-13.159Z" transform="translate(-247.996 -199.151)" fill="#ffb8b8"/>
    <path id="Path_314" data-name="Path 314" d="M488.334,284.169l.24.363L458.5,304.346,407.75,320.551a3.056,3.056,0,0,0-2.1,3.256l1.107,9.536a3.049,3.049,0,0,0,3.668,2.629l47.762-10.238a17.252,17.252,0,0,0,6.421-2.827l33.788-24.04a8.689,8.689,0,0,0-9.821-14.335Z" transform="translate(-250.897 -193.601)" fill="#ccc"/>
    <path id="Path_315" data-name="Path 315" d="M538.644,531.137a3.936,3.936,0,0,1-3.6-2.354L489.386,415.976a1.307,1.307,0,0,0-2.447.138L449.693,525.936a3.921,3.921,0,0,1-5.123,2.518l-12.49-4.684a3.91,3.91,0,0,1-2.524-3.227c-5.619-48.949,43.381-172.5,43.876-173.746l.137-.344,44.667,9.881.093.1C536.15,375.877,550.8,498.5,553.554,522.879a3.9,3.9,0,0,1-2.588,4.135l-11.025,3.9A3.883,3.883,0,0,1,538.644,531.137Z" transform="translate(-253.923 -201.767)" fill="#2f2e41"/>
    <path id="Path_316" data-name="Path 316" d="M506.563,350.952c-10.822,0-22.888-2.158-26.6-11.064l-.086-.2.115-.19c2.931-4.81,6.806-13.015,4.723-14.555-4.1-3.033-6.093-8.023-5.916-14.831.384-14.779,10.454-27.9,25.058-32.651h0a111.2,111.2,0,0,1,12.424-3.2,21.151,21.151,0,0,1,17.537,4.331,21.365,21.365,0,0,1,7.924,16.438c.153,15.794-2.278,37.791-14.732,52.893a3.875,3.875,0,0,1-2.294,1.334,106.463,106.463,0,0,1-18.153,1.7Z" transform="translate(-260.327 -192.407)" fill="#ccc"/>
    <path id="Path_317" data-name="Path 317" d="M506,359.019a8.324,8.324,0,0,1,10.173-5.805,8.192,8.192,0,0,1,1.261.467l13.926-12.673,9.685,6.525-19.915,17.623a8.309,8.309,0,0,1-9.419,4A8.183,8.183,0,0,1,506,359.019Z" transform="translate(-263.796 -201.065)" fill="#ffb8b8"/>
    <path id="Path_318" data-name="Path 318" d="M531.24,351.746a3.91,3.91,0,0,1-2.479-.884l-5.492-4.488a3.92,3.92,0,0,1,.1-6.146L546.4,322.562a1.31,1.31,0,0,0,.247-1.825l-14.217-18.795a11.573,11.573,0,0,1,.773-14.908h0a11.54,11.54,0,0,1,15.582-1.246l.09.095,14.845,21.257a13.234,13.234,0,0,1-.314,21.068l-29.831,22.769A3.926,3.926,0,0,1,531.24,351.746Z" transform="translate(-265.876 -193.631)" fill="#ccc"/>
    <path id="Path_319" data-name="Path 319" d="M497.965,234.595V223.979l18.951-8.275,18.07,8.275v10.615a1.742,1.742,0,0,1-1.742,1.742H499.707A1.742,1.742,0,0,1,497.965,234.595Z" transform="translate(-262.799 -184.913)" fill="#2f2e41"/>
    <path id="Path_320" data-name="Path 320" d="M518.618,204.661c-2.786-8.919,3.066-19.14,11.717-22.67s19-1.063,26.3,4.77,11.829,14.569,14.229,23.6,2.855,18.447,3.3,27.78c10.629,1.952,17.86,14.56,14.178,24.72s-17.311,15.208-26.723,9.9-12.138-19.586-5.345-27.991a22.974,22.974,0,0,0-26.732-35.636C524.3,211.32,517.73,205.628,518.618,204.661Z" transform="translate(-265.371 -180.357)" fill="#2f2e41"/>
    <path id="Path_321" data-name="Path 321" d="M375.813,274.441a90.986,90.986,0,0,1-36.889-8.079,3.9,3.9,0,0,1-2.31-3.575V231.063a3.924,3.924,0,0,1,3.92-3.92h70.559a3.924,3.924,0,0,1,3.92,3.92v31.724a3.9,3.9,0,0,1-2.31,3.575h0a90.986,90.986,0,0,1-36.889,8.079Z" transform="translate(-242.001 -186.388)" fill="#59ef4d"/>
    <path id="Path_322" data-name="Path 322" d="M372.743,244.143a3.924,3.924,0,0,1-1.523-.306L315.268,220.23a3.92,3.92,0,0,1,.133-7.276l55.953-21.227a3.906,3.906,0,0,1,2.8.006l55.2,21.227a3.92,3.92,0,0,1,.134,7.263l-55.2,23.606A3.924,3.924,0,0,1,372.743,244.143Z" transform="translate(-238.94 -181.79)" fill="#59ef4d"/>
    <circle id="Ellipse_43" data-name="Ellipse 43" cx="5.227" cy="5.227" r="5.227" transform="translate(95.92 71.679)" fill="#3f3d56"/>
    <path id="Path_323" data-name="Path 323" d="M429.8,220.415l-55.2,23.606a3.484,3.484,0,0,1-2.724.007l-55.952-23.606a3.419,3.419,0,0,1-1.666-1.464,3.482,3.482,0,0,0,1.666,4.949l55.952,23.606a3.484,3.484,0,0,0,2.724-.007L429.8,223.9a3.482,3.482,0,0,0,1.65-4.942A3.421,3.421,0,0,1,429.8,220.415Z" transform="translate(-239.058 -185.333)" opacity="0.2"/>
    <path id="Path_324" data-name="Path 324" d="M344.489,262.371a.871.871,0,0,0,.871-.871V232.351l28.73-10.466a.871.871,0,0,0,.026-1.742l-28.73,10.466a1.709,1.709,0,0,0-1.249.5,1.73,1.73,0,0,0-.52,1.241V261.5A.871.871,0,0,0,344.489,262.371Z" transform="translate(-242.904 -185.486)" fill="#3f3d56"/>
  </g>
</svg>
