<svg xmlns="http://www.w3.org/2000/svg" xmlns:xlink="http://www.w3.org/1999/xlink" width="611.781" height="398.418" viewBox="0 0 611.781 398.418">
  <defs>
    <linearGradient id="linear-gradient" x1="0.5" y1="1" x2="0.5" gradientUnits="objectBoundingBox">
      <stop offset="0" stop-color="gray" stop-opacity="0.251"/>
      <stop offset="0.54" stop-color="gray" stop-opacity="0.122"/>
      <stop offset="1" stop-color="gray" stop-opacity="0.102"/>
    </linearGradient>
    <linearGradient id="linear-gradient-2" x1="0.799" y1="1" x2="0.799" y2="0" xlink:href="#linear-gradient"/>
  </defs>
  <g id="undraw_Bibliophile_hwqc" transform="translate(0 0)">
    <path id="Path_215" data-name="Path 215" d="M627.29,305.838c-19,28.164-15.64,66.419-7.5,96.583,2.725,10.1,5.873,20.751,3.449,32.068-2.964,13.837-13.584,24.745-24.31,30.987-19.557,11.388-41.822,11.156-57.947-.6-13.957-10.161-23.1-27.937-37.331-37.548-23.853-16.085-56.7-6.151-85.282,9.09-20.22,10.777-42.474,24.417-61.067,16.817-13.083-5.348-21.173-20.549-24.923-37.113-1.805-7.994-2.875-16.731-7.071-22.816a26.8,26.8,0,0,0-9.511-8c-32.6-18.014-76.891-2.677-108.31-23.094-21.223-13.792-33.2-42.391-37.025-73.009s-.44-63.419,3.783-95.715c3.02-22.948,7.076-47.521,20.248-66.232,13.93-19.791,35.793-28.69,54.749-26.917s35.37,12.8,49.5,26.261c17.663,16.827,33.553,38.345,56.487,43.7,15.6,3.651,32.718-.712,49.338-3.207,27.787-4.171,55.161-3.111,82.329-1.692,26.015,1.358,52.191,3.086,76.4,11.428,17.133,5.9,30.244,18.281,46.218,26.3,10.414,5.227,22.187,5.848,31.882,12.837,11.94,8.585,22.232,24.544,17.339,44.749C654.085,279.93,637.369,290.894,627.29,305.838Z" transform="translate(-102.635 -75.44)" fill="#59ef4d" opacity="0.1"/>
    <path id="Path_216" data-name="Path 216" d="M333.743,249.744s-90.1-20.146,24.542-138.014c0,0,49.415,46.837,31.29,105.058-7.287,23.41-30.739,37.861-54.5,33.231Z" transform="translate(-166.102 -79.944)" fill="#59ef4d"/>
    <path id="Path_217" data-name="Path 217" d="M333.923,249.744c-1.978-.441-88.176-22.136,24.542-138.014,0,0,49.415,46.837,31.29,105.058-7.287,23.41-30.739,37.861-54.5,33.231Z" transform="translate(-166.3 -79.944)" fill="#fff" opacity="0.4"/>
    <path id="Path_218" data-name="Path 218" d="M357,250.421s47.591-71.692,23.361-138.681" transform="translate(-189.593 -79.948)" fill="none" stroke="#535461" stroke-miterlimit="10" stroke-width="1"/>
    <path id="Path_219" data-name="Path 219" d="M957.178,326.11s-15.529-62.525,8-107.042a97.587,97.587,0,0,0,10.508-60.842,164.162,164.162,0,0,0-7.434-29.086" transform="translate(-454.937 -86.693)" fill="none" stroke="#535461" stroke-miterlimit="10" stroke-width="2"/>
    <path id="Path_220" data-name="Path 220" d="M985.048,74.124c-.325,7.568-14.966,28.921-14.966,28.921s-12.761-22.528-12.436-30.1a13.715,13.715,0,1,1,27.4,1.176Z" transform="translate(-457.065 -59.82)" fill="#59ef4d"/>
    <path id="Path_221" data-name="Path 221" d="M1018.554,139.5c-4.384,6.178-28.284,16.147-28.284,16.147s1.531-25.847,5.915-32.025a13.715,13.715,0,1,1,22.365,15.88Z" transform="translate(-469.715 -82.314)" fill="#59ef4d"/>
    <path id="Path_222" data-name="Path 222" d="M1009.214,253.512c-6.9,3.117-32.564-.337-32.564-.337s14.372-21.536,21.273-24.659a13.715,13.715,0,1,1,11.293,25Z" transform="translate(-464.434 -142.833)" fill="#59ef4d"/>
    <path id="Path_223" data-name="Path 223" d="M984.544,341.551c-6.276,4.237-32.154,5.168-32.154,5.168s10.526-23.655,16.8-27.9a13.715,13.715,0,1,1,15.352,22.732Z" transform="translate(-455.03 -187.202)" fill="#59ef4d"/>
    <path id="Path_224" data-name="Path 224" d="M940.817,165.354c5.2,5.511,30.255,12.051,30.255,12.051s-5.119-25.381-10.318-30.886a13.715,13.715,0,1,0-19.939,18.837Z" transform="translate(-449.091 -91.764)" fill="#59ef4d"/>
    <path id="Path_225" data-name="Path 225" d="M911.064,266.289c6.613,3.674,32.454,2.449,32.454,2.449s-12.449-22.693-19.068-26.385a13.716,13.716,0,0,0-13.386,23.936Z" transform="translate(-428.205 -149.536)" fill="#59ef4d"/>
    <path id="Path_226" data-name="Path 226" d="M898.692,370.343c5.891,4.758,31.59,7.9,31.59,7.9s-8.462-24.493-14.353-29.233a13.715,13.715,0,1,0-17.239,21.336Z" transform="translate(-423.371 -201.981)" fill="#59ef4d"/>
    <path id="Path_227" data-name="Path 227" d="M985.048,74.124c-.325,7.568-14.966,28.921-14.966,28.921s-12.761-22.528-12.436-30.1a13.715,13.715,0,1,1,27.4,1.176Z" transform="translate(-457.065 -59.82)" fill="#fc6681"/>
    <path id="Path_228" data-name="Path 228" d="M1018.554,139.5c-4.384,6.178-28.284,16.147-28.284,16.147s1.531-25.847,5.915-32.025a13.715,13.715,0,1,1,22.365,15.88Z" transform="translate(-469.715 -82.314)" fill="#fc6681"/>
    <path id="Path_229" data-name="Path 229" d="M1009.214,253.512c-6.9,3.117-32.564-.337-32.564-.337s14.372-21.536,21.273-24.659a13.715,13.715,0,1,1,11.293,25Z" transform="translate(-464.434 -142.833)" fill="#fc6681"/>
    <path id="Path_230" data-name="Path 230" d="M984.544,341.551c-6.276,4.237-32.154,5.168-32.154,5.168s10.526-23.655,16.8-27.9a13.715,13.715,0,1,1,15.352,22.732Z" transform="translate(-455.03 -187.202)" fill="#fc6681"/>
    <path id="Path_231" data-name="Path 231" d="M940.817,165.354c5.2,5.511,30.255,12.051,30.255,12.051s-5.119-25.381-10.318-30.886a13.715,13.715,0,1,0-19.939,18.837Z" transform="translate(-449.091 -91.764)" fill="#fc6681"/>
    <path id="Path_232" data-name="Path 232" d="M911.064,266.289c6.613,3.674,32.454,2.449,32.454,2.449s-12.449-22.693-19.068-26.385a13.716,13.716,0,0,0-13.386,23.936Z" transform="translate(-428.205 -149.536)" fill="#fc6681"/>
    <path id="Path_233" data-name="Path 233" d="M898.692,370.343c5.891,4.758,31.59,7.9,31.59,7.9s-8.462-24.493-14.353-29.233a13.715,13.715,0,1,0-17.239,21.336Z" transform="translate(-423.371 -201.981)" fill="#fc6681"/>
    <path id="Path_234" data-name="Path 234" d="M867.52,300.446s65.128-54.577,79.6-82.1a391.52,391.52,0,0,1,32.925-51.234" transform="translate(-422.129 -101.413)" fill="none" stroke="#535461" stroke-miterlimit="10" stroke-width="2"/>
    <path id="Path_235" data-name="Path 235" d="M1019.507,263.546,991.34,257.19S997.978,286.913,1019.507,263.546Z" transform="translate(-470.129 -157.088)" fill="#59ef4d"/>
    <path id="Path_236" data-name="Path 236" d="M964.307,218l16.215,24.285S948.839,244.588,964.307,218Z" transform="translate(-458 -138.105)" fill="#59ef4d"/>
    <path id="Path_237" data-name="Path 237" d="M1039.135,227.429l-25.755-4.519S1029.564,247.52,1039.135,227.429Z" transform="translate(-478.673 -140.087)" fill="#59ef4d"/>
    <path id="Path_238" data-name="Path 238" d="M991.677,194.86l12.712,16.619S981.886,213.6,991.677,194.86Z" transform="translate(-469.303 -126.413)" fill="#59ef4d"/>
    <path id="Path_239" data-name="Path 239" d="M1035.14,189.45s21.952,1.047,24.494,3.141-3.27,14.378-11.635,12.375S1035.14,189.45,1035.14,189.45Z" transform="translate(-487.109 -110.073)" fill="#59ef4d"/>
    <path id="Path_240" data-name="Path 240" d="M1015.65,157.44s8.958,16.325,8.622,19.429-13.649,6.595-16.343-5.174S1015.65,157.44,1015.65,157.44Z" transform="translate(-476.387 -97.664)" fill="#59ef4d"/>
    <circle id="Ellipse_38" data-name="Ellipse 38" cx="6.123" cy="6.123" r="6.123" transform="translate(555.114 72.501) rotate(-72.43)" fill="#ffd037"/>
    <circle id="Ellipse_39" data-name="Ellipse 39" cx="6.123" cy="6.123" r="6.123" transform="translate(545.532 66.256) rotate(-72.43)" fill="#ffd037"/>
    <path id="Path_241" data-name="Path 241" d="M325.629,284.85s26.33-19.595-6.736-88.176c0,0-44.088-54.5,0-105.934,0,0-96.136,2.449-94.3,91.85s48.068,102.26,48.068,102.26Z" transform="translate(-133.134 -71.807)" fill="#59ef4d"/>
    <path id="Path_242" data-name="Path 242" d="M328.1,284.838s-6.632-47.15-24.389-75.929a61.728,61.728,0,0,1-7.464-18.823A77.065,77.065,0,0,1,317.949,118L345.963,90.71" transform="translate(-162.745 -71.795)" fill="none" stroke="#535461" stroke-miterlimit="10" stroke-width="2"/>
    <path id="Path_243" data-name="Path 243" d="M468.625,150.69s6.05,7.911-2.792,19.852-16.129,22.044-13.184,29.466c0,0,13.337-22.179,24.193-22.491S480.566,164.027,468.625,150.69Z" transform="translate(-230.902 -95.047)" fill="#59ef4d"/>
    <path id="Path_244" data-name="Path 244" d="M468.837,150.69a9.8,9.8,0,0,1,1.225,2.48c10.593,12.443,16.233,24.059,6.056,24.353-9.485.269-20.862,17.231-23.587,21.511a9.185,9.185,0,0,0,.325.974s13.337-22.179,24.193-22.491S480.777,164.027,468.837,150.69Z" transform="translate(-231.129 -95.047)" opacity="0.1"/>
    <path id="Path_245" data-name="Path 245" d="M496.636,166.022c0,2.786-.312,5.04-.7,5.04s-.7-2.26-.7-5.04.392-1.476.778-1.476S496.636,163.242,496.636,166.022Z" transform="translate(-248.816 -100.301)" fill="#ffd037"/>
    <path id="Path_246" data-name="Path 246" d="M500.8,171.373c-2.449,1.335-4.574,2.137-4.758,1.8s1.647-1.69,4.09-3.025,1.482-.361,1.666,0S503.243,170.038,500.8,171.373Z" transform="translate(-249.304 -102.326)" fill="#ffd037"/>
    <path id="Path_247" data-name="Path 247" d="M418.406,150.69s-6.05,7.911,2.792,19.852,16.129,22.044,13.184,29.466c0,0-13.337-22.179-24.193-22.491S406.453,164.027,418.406,150.69Z" transform="translate(-210.394 -95.047)" fill="#59ef4d"/>
    <path id="Path_248" data-name="Path 248" d="M418.4,150.69a9.8,9.8,0,0,0-1.225,2.48c-10.593,12.443-16.233,24.059-6.056,24.353,9.485.269,20.862,17.231,23.587,21.511a9.171,9.171,0,0,1-.324.974s-13.355-22.185-24.212-22.485S406.448,164.027,418.4,150.69Z" transform="translate(-210.38 -95.047)" opacity="0.1"/>
    <path id="Path_249" data-name="Path 249" d="M408.62,166.022c0,2.786.312,5.04.7,5.04s.7-2.26.7-5.04-.392-1.476-.778-1.476S408.62,163.242,408.62,166.022Z" transform="translate(-211.323 -100.301)" fill="#ffd037"/>
    <path id="Path_250" data-name="Path 250" d="M401.379,171.373c2.449,1.335,4.574,2.137,4.758,1.8s-1.647-1.69-4.09-3.025-1.482-.361-1.666,0S398.936,170.038,401.379,171.373Z" transform="translate(-207.66 -102.326)" fill="#ffd037"/>
    <path id="Path_251" data-name="Path 251" d="M672.531,508.519l-49.7-236.043H604.37c-.737-9.02-1.231-17.758-1.418-25.987,0,0-66.936,15.81-120.314-29.931S366.5,220.514,366.5,220.514l-.244-.19v.025c-4.356-3.331-64.474-47.8-115.873-3.754-53.356,45.741-120.314,29.931-120.314,29.931-.187,8.334-.686,17.145-1.441,26.251H111.5L60.75,509.37s206.309,8.34,278.606.649c2.592,5.915,13.767,10.361,27.154,10.361,15.044,0,27.279-5.615,27.7-12.614C450.492,512.389,571.589,519.78,672.531,508.519Z" transform="translate(-60.75 -192.508)" fill="url(#linear-gradient)"/>
    <path id="Path_252" data-name="Path 252" d="M121.6,323.349,72,555.02s273.049,11.059,295.038-4.421c0,0,169.508,18.523,302.966,3.594L621.427,323.08Z" transform="translate(-65.111 -215.024)" fill="#e2e2ec"/>
    <path id="Path_253" data-name="Path 253" d="M153.7,336.427,107.73,552.416s253.068,10.312,273.447-4.121c0,0,157.1,17.268,280.793,3.349L616.934,336.17Z" transform="translate(-78.963 -219.26)" opacity="0.1"/>
    <path id="Path_254" data-name="Path 254" d="M618.5,250.99s-64.924,15.48-116.659-29.306-112.6,3.87-112.6,3.87-60.863-48.656-112.6-3.87S159.983,250.99,159.983,250.99c-2.045,90.123-40.573,236.092-40.573,236.092s71.008,21.009,164.844-21.56S389.246,480.45,389.246,480.45s11.156-57.5,104.992-14.929,164.844,21.56,164.844,21.56S620.531,341.113,618.5,250.99Z" transform="translate(-83.49 -152.135)" fill="#f1f2fb"/>
    <path id="Path_255" data-name="Path 255" d="M376.75,652.975s93.442-21.009,136.551,9.95c0,0,41.467-37.6,137.671-8.291" transform="translate(-207.614 -348.004)" opacity="0.1"/>
    <ellipse id="Ellipse_40" data-name="Ellipse 40" cx="29.306" cy="12.718" rx="29.306" ry="12.718" transform="translate(276.455 312.04)" fill="#e8eaf8"/>
    <path id="Path_256" data-name="Path 256" d="M599.32,239.55s21.009,73.745.551,177.673" transform="translate(-294.17 -129.495)" opacity="0.1"/>
    <path id="Path_257" data-name="Path 257" d="M224.7,322.311s44.008,10.226,82.1,0,108.034-43.678,131.04,0" transform="translate(-135.221 -179.016)" fill="none" stroke="#000" stroke-miterlimit="10" stroke-width="4" opacity="0.1"/>
    <path id="Path_258" data-name="Path 258" d="M224.7,362.144s44.008,10.226,82.1,0,120.575-9.675,131.04,0" transform="translate(-135.221 -204.913)" fill="none" stroke="#000" stroke-miterlimit="10" stroke-width="4" opacity="0.1"/>
    <path id="Path_259" data-name="Path 259" d="M224.7,407.141s44.008,10.226,82.1,0,108.034-43.678,131.04,0" transform="translate(-135.221 -221.041)" fill="none" stroke="#000" stroke-miterlimit="10" stroke-width="4" opacity="0.1"/>
    <path id="Path_260" data-name="Path 260" d="M224.7,447.014s44.008,10.226,82.1,0,120.575-9.675,131.04,0" transform="translate(-135.221 -246.675)" fill="none" stroke="#000" stroke-miterlimit="10" stroke-width="4" opacity="0.1"/>
    <path id="Path_261" data-name="Path 261" d="M839.911,322.311s-44.008,10.226-82.1,0-108.034-43.678-131.04,0" transform="translate(-317.854 -179.016)" fill="none" stroke="#000" stroke-miterlimit="10" stroke-width="4" opacity="0.1"/>
    <path id="Path_262" data-name="Path 262" d="M839.911,362.144s-44.008,10.226-82.1,0-120.575-9.675-131.04,0" transform="translate(-317.854 -204.913)" fill="none" stroke="#000" stroke-miterlimit="10" stroke-width="4" opacity="0.1"/>
    <path id="Path_263" data-name="Path 263" d="M839.911,407.141s-44.008,10.226-82.1,0-108.034-43.678-131.04,0" transform="translate(-317.854 -221.041)" fill="none" stroke="#000" stroke-miterlimit="10" stroke-width="4" opacity="0.1"/>
    <path id="Path_264" data-name="Path 264" d="M839.911,447.014s-44.008,10.226-82.1,0-120.575-9.675-131.04,0" transform="translate(-317.854 -246.675)" fill="none" stroke="#000" stroke-miterlimit="10" stroke-width="4" opacity="0.1"/>
    <path id="Path_265" data-name="Path 265" d="M951.044,766.533c1.837-1.4,3.582-3.062,4.115-5.064a4.286,4.286,0,0,0-2.872-5.156c-2.639-.821-5.456.667-7.6,2.174s-4.586,3.227-7.385,2.909a8.216,8.216,0,0,0,3.478-8.573,3.325,3.325,0,0,0-.967-1.745c-1.463-1.28-4.121-.729-5.872.276-5.578,3.2-7.134,9.381-7.164,14.947-.563-2.008-.086-4.1-.1-6.16s-.7-4.341-2.835-5.45a10.133,10.133,0,0,0-4.323-.827c-2.5-.073-5.3.129-7.011,1.629-2.125,1.837-1.574,4.978.276,7.023s4.666,3.331,7.256,4.746a15.12,15.12,0,0,1,5.187,4.035,3.676,3.676,0,0,1,.386.723h15.719a45.189,45.189,0,0,0,9.718-5.487Z" transform="translate(-439.037 -406.936)" fill="#59ef4d"/>
    <path id="Path_266" data-name="Path 266" d="M792.776,287.793s.153.7.41,1.957c-.135.2-.269.391-.41.582-5.021,6.75-5.793,16.473-5.321,24.456a65.7,65.7,0,0,0,4.207,18.978,72.189,72.189,0,0,1,4.286,24.651,22.931,22.931,0,0,0,7.03,4.089c.135.328.276.66.4.978a82.533,82.533,0,0,1,4.672,18.885l1.58,15.974s12.106,36.155,15.786,42.88c2.621,4.784,2.045,14.673,1.494,19.975-1.574,3.566-3.49,6.965-5.18,7.337-3.062.694-6.123,6.583-1.666,9.543h0a7.407,7.407,0,0,0,1.072.587l.177.078.325.132.478.171.245.073.508.137.22.054c.239.054.484.108.747.156a16.335,16.335,0,0,0,9.087-1.149,20.521,20.521,0,0,0,8.573-3.292l-.061,2.548h3.674l-.172-5.092c.661-.592,1.029-.978,1.029-.978s.11-3.076.533-6.657l-.269,11.489H849.9l-.992-21.2a3.454,3.454,0,0,1,.729-.866c3.062-2.446-2.229-10.335-4.966-11.651,1.225-5.185,5.9-12.673,11.285-27.028,7.893-21.032-2.106-41.619-2.106-41.619V357.829c2.651-.91,4.213-1.531,4.213-1.531s-3.674-17.236,0-29.425c2.382-7.88,3-14.879,1.01-21.575,2.645-7.278,4.782-12.9,4.782-12.9l3.674-30.266c.937-4.544,1.568-8.432,1.972-11.739a12.152,12.152,0,0,0,.141-1.237,49.459,49.459,0,0,0,.086-12.961,16.5,16.5,0,0,0,.22-3.722,11.771,11.771,0,0,0,.1-1.922c.527-.489,1.041-.978,1.531-1.467a21.042,21.042,0,0,0,3.3-4.206c4.047-6.1,4.164-13.548-1.488-18.924-3.478-3.311-4.562-6.877-7.568-10.4-2.749-3.228-3.27-7.1-3.931-10.814a109.152,109.152,0,0,0-3.368-13.729c-.422-1.33-2.737-2.147-3.888-3.253-2.223-2.137-8.714-2.064-12.455-2.538-6.283-.8-13.086-1.541-18.8.43-3.98,1.374-6.84,3.874-9.95,6.08-3.349,2.372-10.208,3.517-11.273,6.358-.949,1.086-1,2.446.612,4.265,1.555,1.751,4,3,6.289,4.314.294.166.569.342.857.489-1.589,7.749,3.343,15.418,12.155,18.9q-.092.477-.2.939a48,48,0,0,1-2.768,8.075c-.68,1.624-8.542,4.461-14.084,6.28a7.3,7.3,0,0,0-2.247-1.237c-4.213-.841-18.419,5.463-19.472,7.567-.294.587.478,2.211,1.733,4.255a12.4,12.4,0,0,0,.569,2.759c-.312,4.3.251,11.25,2.964,22.416Zm59.09,4.73c-.2-.3-.4-.6-.612-.915-5.848-9.445-9.32-24.715-.943-33.822.747.064,1.494.122,2.241.161.5,12.394.208,32.771.208,32.771S852.429,291.4,851.866,292.523Zm-20.875,71.988c1.188,4.769,2.584,10.31,3.888,15.348a32.469,32.469,0,0,1-.306,17.765l-4.948-11.856-1.151-20.861-.073-.856q1.194-.161,2.37-.347Z" transform="translate(-378.844 -100.359)" fill="url(#linear-gradient-2)"/>
    <path id="Path_267" data-name="Path 267" d="M863.225,581.742a49.734,49.734,0,0,1-.3,21.891,28.316,28.316,0,0,1-1.225,4.011l1.4,56.763.159,6.436a32.375,32.375,0,0,0,3.919.576,17.8,17.8,0,0,0,3.674,0,4.393,4.393,0,0,0,2.878-1.225c.576-.7.7-1.837-.116-3.484a10.361,10.361,0,0,1-1-5.848c.049-.563.141-1.157.251-1.77,1.225-6.387,5.8-15.621,11.108-33.3,7.771-25.9-2.07-51.283-2.07-51.283V550.66l-25.381-2.59s1.225,6.417,2.909,14.757C860.568,568.706,861.939,575.533,863.225,581.742Z" transform="translate(-406.852 -328.526)" fill="#fdc2cc"/>
    <path id="Path_268" data-name="Path 268" d="M863.225,581.742a49.734,49.734,0,0,1-.3,21.891,28.316,28.316,0,0,1-1.225,4.011l1.4,56.763.159,6.436a32.375,32.375,0,0,0,3.919.576,17.8,17.8,0,0,0,3.674,0,4.393,4.393,0,0,0,2.878-1.225c.576-.7.7-1.837-.116-3.484a10.361,10.361,0,0,1-1-5.848c.049-.563.141-1.157.251-1.77,1.225-6.387,5.8-15.621,11.108-33.3,7.771-25.9-2.07-51.283-2.07-51.283V550.66l-25.381-2.59s1.225,6.417,2.909,14.757C860.568,568.706,861.939,575.533,863.225,581.742Z" transform="translate(-406.852 -328.526)" opacity="0.1"/>
    <path id="Path_269" data-name="Path 269" d="M809.94,552.3a77.757,77.757,0,0,1,4.207,10.918,123.217,123.217,0,0,1,4.6,23.269l1.555,19.687s11.916,44.547,15.541,52.838c2.578,5.9,2.015,18.082,1.47,24.628-.22,2.658-.435,4.384-.435,4.384l5.284-6.472,6.926-8.493,3.16-3.876.692-.845a31.83,31.83,0,0,1-2.021-5.407h0a92.418,92.418,0,0,1-3.154-17.36c-1.555-16.055-2.07-37.818-2.07-37.818l-.821-2.449-4.9-14.641-1.133-25.718-.423-9.522Z" transform="translate(-387.313 -330.165)" fill="#fdc2cc"/>
    <path id="Path_270" data-name="Path 270" d="M864.636,732.547a36.863,36.863,0,0,0-6.16,12.179c-1.647,5.6-4.543,14.212-6.974,14.9-3.625,1.035-7.25,11.4,2.07,13.471s17.1-8.291,17.1-8.291.521-18.131,3.625-21.236-2.59-13.471-5.18-14.506C868.077,728.647,866.326,730.361,864.636,732.547Z" transform="translate(-402.829 -398.668)" fill="#5f5d7e"/>
    <path id="Path_271" data-name="Path 271" d="M851.86,771.553a12.474,12.474,0,0,0,7.275-.661,16.258,16.258,0,0,0,10.177-13.967c.441-5.548,1.372-13.006,3.264-14.9,2.449-2.449-.612-9.43-3.245-12.767a1.4,1.4,0,0,1,1.17-.184c2.59,1.035,8.291,11.4,5.18,14.506s-3.625,21.236-3.625,21.236-7.758,10.361-17.084,8.279a8.573,8.573,0,0,1-3.711-1.708C851.456,771.449,851.652,771.5,851.86,771.553Z" transform="translate(-404.263 -398.674)" opacity="0.1"/>
    <path id="Path_272" data-name="Path 272" d="M888.287,752.9l1,26.759H885.66l.5-26.741a1.029,1.029,0,0,1,1.065-.974h0a1.029,1.029,0,0,1,1.059.955Z" transform="translate(-417.934 -407.562)" fill="#5f5d7e"/>
    <path id="Path_273" data-name="Path 273" d="M888.287,752.9l1,26.759H885.66l.5-26.741a1.029,1.029,0,0,1,1.065-.974h0a1.029,1.029,0,0,1,1.059.955Z" transform="translate(-417.934 -407.562)" opacity="0.15"/>
    <path id="Path_274" data-name="Path 274" d="M857.026,735.085a36.862,36.862,0,0,0-6.16,12.179c-1.647,5.6-4.543,14.212-6.974,14.9-3.625,1.035-7.25,11.4,2.07,13.471s17.1-8.3,17.1-8.3.52-18.131,3.625-21.236-2.59-13.471-5.18-14.506C860.455,731.209,858.716,732.9,857.026,735.085Z" transform="translate(-399.521 -399.651)" fill="#5f5d7e"/>
    <path id="Path_275" data-name="Path 275" d="M844.246,774.073a12.474,12.474,0,0,0,7.275-.661A16.257,16.257,0,0,0,861.7,759.445c.441-5.548,1.372-13.006,3.264-14.9,2.449-2.449-.612-9.43-3.245-12.767a1.4,1.4,0,0,1,1.17-.184c2.59,1.035,8.291,11.4,5.18,14.506s-3.619,21.236-3.619,21.236-7.771,10.361-17.1,8.291a8.573,8.573,0,0,1-3.711-1.708C843.86,773.981,844.038,774.036,844.246,774.073Z" transform="translate(-400.952 -399.651)" opacity="0.1"/>
    <path id="Path_276" data-name="Path 276" d="M880.651,755.394l1,26.759H878l.5-26.741a1.029,1.029,0,0,1,1.065-.974h0a1.029,1.029,0,0,1,1.084.955Z" transform="translate(-414.618 -408.527)" fill="#5f5d7e"/>
    <path id="Path_277" data-name="Path 277" d="M880.651,755.394l1,26.759H878l.5-26.741a1.029,1.029,0,0,1,1.065-.974h0a1.029,1.029,0,0,1,1.084.955Z" transform="translate(-414.618 -408.527)" opacity="0.15"/>
    <path id="Path_278" data-name="Path 278" d="M810.79,265.221l20.721,32.637,24.346,3.111s15.021-29.527,14.506-31.082-8.291-4.66-15.541-10.361S856.378,230,856.378,230l-23.826,2.07c.092.318.184.612.251.967a30.908,30.908,0,0,1-.116,12.412,69.815,69.815,0,0,1-2.731,9.932C828.921,258.486,810.79,265.221,810.79,265.221Z" transform="translate(-388.682 -146.136)" fill="#fdc2cc"/>
    <path id="Path_279" data-name="Path 279" d="M856.47,548.07s1.225,6.417,2.909,14.757a118.873,118.873,0,0,0,22.479-7.177v-4.99Z" transform="translate(-406.531 -300.377)" opacity="0.1"/>
    <path id="Path_280" data-name="Path 280" d="M809.94,552.3a77.757,77.757,0,0,1,4.207,10.918c7.207,3.251,16.172,3.16,24.7,1.708l-.422-9.522Z" transform="translate(-386.507 -302.331)" opacity="0.1"/>
    <path id="Path_281" data-name="Path 281" d="M793.847,368.045c-4.941,8.322-5.7,20.293-5.235,30.164a98.582,98.582,0,0,0,4.139,23.379,109.3,109.3,0,0,1,4.225,30.378c17.611,19.166,61.123-2.59,61.123-2.59s-3.625-21.236,0-36.262c2.523-10.446,3.062-19.65.5-28.467a44.87,44.87,0,0,0-5.162-11.42c-.686-1.09-1.353-2.3-2-3.588-6-12.136-9.467-32.074.184-43.072a20.12,20.12,0,0,1,3.368-3.062c8.413-6.093,12.247-12.859,13.863-18.584a24.99,24.99,0,0,0,.612-10.942c-1.035-5.7-15.541-10.881-15.541-10.881.52,17.1-21.236,31.6-21.236,31.6s-24.867-32.117-29.006-33.152-18.131,6.736-19.166,9.326,11.4,21.756,11.4,21.756S803.693,351.469,793.847,368.045Z" transform="translate(-378.777 -181.735)" fill="#d39999"/>
    <path id="Path_282" data-name="Path 282" d="M896.932,332.086c8.414-6.093,12.247-12.859,13.863-18.584-.4-8.573-2.449-9.9-2.449-9.9s-17.115,16.57-15.559,22.289a59.239,59.239,0,0,1,.778,9.283A20.121,20.121,0,0,1,896.932,332.086Z" transform="translate(-421.827 -180.893)" opacity="0.1"/>
    <path id="Path_283" data-name="Path 283" d="M851.912,497.442c3.625,10.881,21.756-8.291,22.277-16.576.331-5.3,6.178-26.092,10.342-40.377a44.877,44.877,0,0,0-5.162-11.42c-.686-1.09-1.353-2.3-2-3.588-1.966,4.831-9.858,24.634-9.4,30.525.52,6.736-3.111,16.576-3.111,16.576S848.287,486.56,851.912,497.442Z" transform="translate(-404.783 -245.745)" opacity="0.1"/>
    <path id="Path_284" data-name="Path 284" d="M894.009,303.59s5.7,3.625,0,38.332l-3.625,37.3s-13.986,46.1-14.506,54.394-18.646,27.451-22.277,16.576,12.951-24.867,12.951-24.867,3.625-9.84,3.111-16.576,9.84-31.6,9.84-31.6.52-45.582-1.035-51.283S894.009,303.59,894.009,303.59Z" transform="translate(-406.146 -190.469)" fill="#fdc2cc"/>
    <path id="Path_285" data-name="Path 285" d="M792.825,296.82s-6.736,1.555,0,36.262L796.97,370.9s9.326,54.394,8.805,60.621,20.207,22.277,21.756,13.471-10.361-23.312-10.361-23.312-5.193-11.414-5.193-32.656l-1.035-17.1L803.7,310.291Z" transform="translate(-378.256 -186.937)" opacity="0.1"/>
    <path id="Path_286" data-name="Path 286" d="M791.1,296.82s-6.736,1.555,0,36.262L795.25,370.9s9.326,54.394,8.805,60.621,20.207,22.277,21.756,13.471-10.361-23.312-10.361-23.312-5.18-11.4-5.18-32.637l-1.035-17.1L802,310.291Z" transform="translate(-377.507 -186.937)" fill="#fdc2cc"/>
    <path id="Path_287" data-name="Path 287" d="M787.433,297.38s-3.111,16.576,18.646,22.277-2.59-19.693-2.59-19.693S795.2,287.54,787.433,297.38Z" transform="translate(-376.596 -175.657)" opacity="0.1"/>
    <path id="Path_288" data-name="Path 288" d="M788.273,296.538s-3.1,16.57,18.652,22.271-2.59-19.687-2.59-19.687S796.044,286.692,788.273,296.538Z" transform="translate(-376.962 -175.239)" fill="#d39999"/>
    <path id="Path_289" data-name="Path 289" d="M906.2,297.38s3.111,16.576-18.646,22.277,2.584-19.693,2.584-19.693S898.406,287.54,906.2,297.38Z" transform="translate(-416.258 -175.657)" opacity="0.1"/>
    <path id="Path_290" data-name="Path 290" d="M905.345,296.538s3.135,16.57-18.646,22.271,2.59-19.687,2.59-19.687S897.575,286.692,905.345,296.538Z" transform="translate(-415.883 -175.239)" fill="#d39999"/>
    <path id="Path_291" data-name="Path 291" d="M846.55,246.094c2.86.833,6.062-5.866,9.442-5.866,3.582,0,6.956,7.17,9.944,5.652a89.775,89.775,0,0,1,3.784-14.2l-23.054,2.033A30.873,30.873,0,0,1,846.55,246.094Z" transform="translate(-402.092 -144.484)" opacity="0.1"/>
    <circle id="Ellipse_41" data-name="Ellipse 41" cx="22.013" cy="22.013" r="22.013" transform="translate(432.116 62.698)" fill="#fdc2cc"/>
    <path id="Path_292" data-name="Path 292" d="M815.031,192.266c1.531,2.155,3.943,3.674,6.191,5.315a68.014,68.014,0,0,1,7.85,6.57,23.207,23.207,0,0,1,4.39,5.438c1.745,3.258,1.978,6.944,2.186,10.532l2.137,37.065a23.656,23.656,0,0,1-.343,7.348,25.107,25.107,0,0,1-2.651,5.8c-2.823,5.009-5.725,10.116-10.269,14.084-1.519,1.317-3.368,3.019-2.566,4.746.649,1.39,2.645,1.837,4.36,2.039,7.195.967,15.168,1.794,21.224-1.715,2.284-1.323,4.176-3.221,6.736-4.041,3.564-1.133,7.495.049,11.292.043,4.029,0,7.875-1.341,11.634-2.664a4.17,4.17,0,0,0,1.91-1.078,3.192,3.192,0,0,0,.545-1.464c.569-3.007,1.108-6.123.178-9.069-1.01-3.19-3.674-5.952-3.974-9.246-.392-4.58,3.833-8.309,6.87-12.075,6.466-8.015,7.905-19.558,1.268-27.463-3.423-4.078-4.495-8.475-7.452-12.816-2.706-3.974-3.221-8.744-3.87-13.324a163.207,163.207,0,0,0-3.319-16.919c-.41-1.641-2.694-2.645-3.827-4.011-2.192-2.633-8.573-2.541-12.247-3.129-6.185-.98-12.859-1.9-18.511.533-3.919,1.69-6.736,4.776-9.8,7.489C820.64,184.128,810.12,185.34,815.031,192.266Z" transform="translate(-390.932 -103.006)" opacity="0.1"/>
    <path id="Path_293" data-name="Path 293" d="M815.879,190.576c1.531,2.155,3.943,3.674,6.191,5.315a68.02,68.02,0,0,1,7.85,6.583,23.2,23.2,0,0,1,4.39,5.438c1.745,3.258,1.978,6.944,2.186,10.532l2.156,37.052a23.656,23.656,0,0,1-.343,7.348,25.1,25.1,0,0,1-2.651,5.8c-2.823,5.009-5.725,10.116-10.269,14.084-1.519,1.316-3.368,3.019-2.566,4.746.649,1.39,2.645,1.837,4.36,2.039,7.195.967,15.168,1.794,21.224-1.715,2.284-1.323,4.176-3.221,6.736-4.041,3.564-1.133,7.495.049,11.291.043,4.029,0,7.875-1.341,11.634-2.664a4.169,4.169,0,0,0,1.91-1.078,3.189,3.189,0,0,0,.545-1.463c.569-3.007,1.108-6.123.177-9.069-1.01-3.19-3.674-5.952-3.974-9.246-.392-4.58,3.833-8.309,6.87-12.075,6.466-8.015,7.905-19.558,1.268-27.463-3.423-4.078-4.495-8.475-7.452-12.816-2.706-3.974-3.221-8.744-3.87-13.324a163.2,163.2,0,0,0-3.319-16.919c-.41-1.641-2.694-2.645-3.827-4.011-2.192-2.633-8.573-2.541-12.247-3.129-6.184-.98-12.859-1.9-18.511.533-3.919,1.69-6.736,4.776-9.8,7.489C821.458,182.438,810.968,183.65,815.879,190.576Z" transform="translate(-391.304 -102.351)" fill="#865a61"/>
  </g>
</svg>
